<svg class="svg-headout-logo-zeppelin" xmlns="http://www.w3.org/2000/svg" version="1.1" viewBox="0 0 256 136.02">
	<g transform="translate(-933.61705,-539.02298)">
		<path d="m1101.1,539.02c-14.689,0.10298-32.544,2.378-53.732,8.7734-25.54,7.71-44.382,15.069-59.398,22.506-0.51341-1.4338-1.102-2.9263-2.1797-4.632-1.1726-1.8547-2.2538-3.5753-3.0517-4.8499-0.39889-0.63705-0.74592-1.2037-0.98081-1.5797-0.21241-0.33998-0.3072-0.48423-0.38154-0.59925-0.00007-0.00017-0.0377-0.0343-0.055-0.0516-0.0584-0.0686-0.16309-0.21809-0.16309-0.21809-0.00061-0.00052-0.17009-0.0859-0.2179-0.10298-0.0961-0.0516-0.11339-0.0859-0.16308-0.10297-0.0996-0.0343-0.17429-0.0516-0.2179-0.0516-0.0876-0.012-0.15968,0.002-0.21791,0-0.1151-0.003-0.22801-0.003-0.38137,0-0.30684,0.007-0.71621,0.0343-1.2533,0.0516-1.0742,0.0516-2.588,0.1373-4.4686,0.27303-3.7607,0.26615-8.9506,0.66451-14.604,1.1436l-12.697,1.0904c-5.8991,0.49968-10.179,3.0114-12.152,6.8117-1.9726,3.8007-1.5248,8.7034,1.5803,13.623,2.9688,4.6991,5.7391,8.9798,7.7926,12.043,1.0267,1.5317,1.8862,2.7378,2.5067,3.5966,0.27355,0.37778,0.46449,0.69029,0.65389,0.92553-2.2999,2.0532-4.596,4.1108-6.8117,6.2668l-0.7629,0.76241,0.7629,0.76236,3.5966,3.5421-0.38153,0.27303,1.1444,0.92551c0.17977,0.1373,0.35819,0.32626,0.59944,0.59927l0.16309,0.17171,0.2725,0.10298c0.27543,0.10297,0.55189,0.27817,0.81735,0.43615,0.18235,0.10297,0.23181,0.1373,0.1081,0.0516l1.7982,1.7982c0.009,0.0137-0.009,0.0343,0,0.0516l-8.0652,0.70915h-0.055c-0.2174,0.0172-0.30633,0.10298-0.32695,0.10298-0.003,0.002-0.055,0.00017-0.055,0v0.0516c-2.0943,0.40179-3.5145,2.3652-3.1606,4.4686,0.36987,2.1326,2.3689,3.6384,4.523,3.2696l7.5747-1.3084-4.1415,6.7028-0.59944,0.98047,1.0354,0.49109c1.7917,0.91865,4.1482,1.9668,6.5938,2.9972-0.22202,0.28332-0.45727,0.39836-0.70848,0.76238-0.68837,0.99765-1.4952,2.2979-2.3433,3.8692-1.696,3.1425-3.6512,7.3266-5.6129,12.043l-0.81737,1.8527c-2.2764,5.478-2.009,10.504,0.54502,14.005,2.5539,3.5011,7.2805,5.3544,13.187,4.8497l12.643-1.0904c5.6518-0.47909,10.8-0.99765,14.55-1.3617,1.8751-0.18201,3.4-0.31251,4.4684-0.43615,0.53421-0.0686,0.94905-0.12022,1.2533-0.17171,0.15284-0.0172,0.267-0.0343,0.38154-0.0516,0.0567-0.012,0.0772-0.0343,0.16309-0.0516,0.0429-0.0137,0.12364-0.005,0.21807-0.0516,0.0482-0.0171,0.0772-0.0859,0.16309-0.17171,0.0429-0.0343,0.16308-0.15455,0.16308-0.17171,0.00053-0.00051,0.16308-0.27131,0.16308-0.27301-0.0343,0.0859,0.14772-0.31424,0.38154-0.87228,0.23336-0.55636,0.57988-1.3857,0.98081-2.3433,0.80223-1.9166,1.8773-4.4761,3.0517-7.3022,1.036-2.4834,0.48596-5.2316-1.1444-7.5747-0.63705-0.91521-1.5713-1.7333-2.5068-2.5612,16.025,4.4032,32.771,8.1238,45.939,9.5365,2.233,2.2719,4.7727,5.2386,7.9561,9.2095,5.4935,6.8062,8.2148,9.9619,11.88,11.062,3.6648,1.1007,7.6187,0.009,15.585-1.0904,15.974-2.225,35.682-4.4472,43.649-5.504,3.8364-0.50826,7.3085-0.18889,10.735-1.9072,3.4267-1.7176,6.4374-5.3899,9.482-13.297,4.1917-10.915,10.978-14.11,18.091-18.255,0.6184-0.36403,1.2234-0.73493,1.8529-1.1436,0.4859-0.31768,1.0074-0.62333,1.5259-0.98047,0,0,1.9024-1.3411,4.7954-3.6511,5.1242-4.1376,13.245-11.523,18.91-20.653h0.055l0.3274-0.49109c-0.0009,0.00087,0.0001-0.0516,0-0.0516-0.017,0.0172,0.5096-0.62845,1.1441-1.5265,0.3079-0.45333,0.8245-1.0543,1.308-1.9073,0.4512-0.74178,0.9515-1.5935,1.4714-2.6157l0.055-0.0516c0.401-0.88601,1.0417-1.9056,1.5259-3.2151,0.4416-1.1487,0.8927-2.4188,1.1989-3.8145h0.055v-0.10297c0.4071-1.396,0.5985-2.8867,0.7627-4.305,0.073-0.78816,0.1264-1.5317,0.1623-2.2344v-0.0516c0-0.77787-0.038-1.5076-0.055-2.2344l-0.055-1.0904h-0.1622c-0.075-0.42583-0.1716-0.91691-0.2179-1.2535-0.1349-0.7813-0.3123-1.5608-0.5449-2.2887v-0.0516c-0.3885-1.5488-1.0684-2.877-1.5803-4.0871v-0.0516h-0.055c-0.6293-1.1539-1.2553-2.3542-2.0708-3.433l0.055-0.0516c-0.721-1.1333-1.53-2.0235-2.2342-2.8338-0.019-0.0172-0.036-0.0343-0.055-0.0516-0.7218-0.93065-1.505-1.6175-2.0707-2.1797-0.6736-0.69714-1.2942-1.1917-1.7438-1.5797h-0.055c-0.2975-0.23869-0.4849-0.41726-0.7086-0.59927l-0.055-0.0516c-0.09-0.0686-0.1915-0.20951-0.2724-0.27303-0.026-0.0172-0.084-0.0343-0.1076-0.0516-5.7255-5.7661-14.095-11.397-25.938-16.675h-0.055c-2.6505-0.95472-8.197-3.4972-16.512-5.7217-8.3149-2.2245-19.471-4.1955-33.568-4.1417h-0.436zm11.716,14.604c17.62,0.0172,35,2.1153,51.933,8.8825,4.7997,1.9121,10.401,5.4462,12.414,7.1473,2.0133,1.7016,5.3541,6.0537,6.0595,8.5469-3.6977-1.2552-7.3626-2.7081-11.28-3.6513-25.979-6.2564-52.348-4.6935-78.252-2.1251-27.564,2.7284-54.771,8.3121-81.687,15.04-21,5.2483-42.051,10.267-62.287,18.474-0.60939,0.24899-1.2198,0.48766-1.7982,0.76241-0.47753-0.29537-1.0196-0.50999-1.5802-0.70747-0.0343-0.0343-0.0738-0.0687-0.10809-0.10298-0.0172-0.0172-0.036-0.0343-0.055-0.0516,0.37297-0.40181,0.68668-0.86026,1.1445-1.1985,0.0119-0.009,0.0429,0.009,0.055,0,0.82387-0.57181,1.5799-1.1676,2.3978-1.7438,0.94253-0.28504,1.6979-0.84309,2.1797-1.6347,1.0182-0.36403,1.8296-0.98047,2.5612-1.6347,0.055-0.0137,0.10827-0.0343,0.16309-0.0516,1.2832-0.3503,2.4991-0.81907,3.7056-1.5797,29.463-17.745,61.78-28.187,95.038-36.402,11.708-2.8836,23.3-6.0408,35.203-6.9207,8.0886-0.59926,16.187-1.044,24.195-1.0354zm72.532,35.802c-0.1851,2.6589-0.9006,5.8139-1.4714,7.6287-1.2606,4.0087-3.224,6.9135-4.9042,8.6646-12.248,12.765-28.274,19.955-45.012,24.904-12.568,3.7471-25.308,7.1066-38.2,8.7191-13.121,1.657-26.659,1.5248-39.998,1.1985-31.316-0.76755-62.309-4.1878-92.585-12.588-3.8302-1.0594-7.5078-2.4827-11.117-4.0871,0.39562-0.66109,0.87211-1.2758,1.0898-2.0163,0.0275-0.10298,0.0842-0.17685,0.10809-0.27302,0.0465-0.0859,0.12023-0.1373,0.16309-0.21807,8.209,0.96501,16.429,2.137,24.74,2.5068,12.093,0.54777,24.14-0.15455,36.075,0.21807,24.005,0.71776,47.886-0.81391,71.659-2.8881,23.042-2.0144,45.668-7.03,67.682-14.005,11.484-3.6506,23.344-7.7935,31.77-17.765zm-235.31,33.787c-0.1151,0.15455-0.14242,0.3984-0.2725,0.54436l-0.21791,0.21805zm169.09,29.863c2.0135,0,3.5966,1.6003,3.5966,3.6511,0,2.0534-1.5825,3.6511-3.5966,3.6511-2.0428,0-3.6511-1.6055-3.6511-3.6511,0-2.0422,1.6088-3.6511,3.6511-3.6511zm-28.065,2.3432c2.0486,0,3.6511,1.602,3.6511,3.6511,0,2.02-1.6088,3.6511-3.6511,3.6511-2.0082,0-3.5966-1.6244-3.5966-3.6511,0-2.0559,1.5817-3.6511,3.5966-3.6511zm-28.01,2.3978c2.015,0,3.6511,1.6192,3.6511,3.6511,0,2.0182-1.624,3.5964-3.6511,3.5964-2.0504,0-3.651-1.5729-3.651-3.5964,0-2.0364,1.6124-3.6511,3.651-3.6511z" fill-rule="nonzero" class="svg-headout-logo-horizontal-zeppelin" fill="#ec1943"/>
	</g>
</svg>
