<?xml version="1.0" encoding="utf-8"?>
<!-- Generator: Adobe Illustrator 17.0.0, SVG Export Plug-In . SVG Version: 6.00 Build 0)  -->
<!DOCTYPE svg PUBLIC "-//W3C//DTD SVG 1.1//EN" "http://www.w3.org/Graphics/SVG/1.1/DTD/svg11.dtd">
<svg version="1.1" id="Layer_1" xmlns="http://www.w3.org/2000/svg" xmlns:xlink="http://www.w3.org/1999/xlink" x="0px" y="0px"
	 width="500px" height="500px" viewBox="0 0 500 500" enable-background="new 0 0 500 500" xml:space="preserve">
<g>
	<g transform="translate(-190,-361.61763)">
		<g>
			<g>
				<path fill="#E7224E" stroke="#000000" stroke-miterlimit="10" d="M437.505,742.962c-2.488,0-4.587-0.283-6.608-0.89
					c-7.236-2.172-12.567-8.475-22.989-21.387c-6.441-8.035-11.161-13.501-15.296-17.712c-29.112-3.129-63.76-11.593-87.935-18.217
					c1.613,1.43,3.238,2.912,4.363,4.528c3.329,4.785,4.14,10.163,2.223,14.757c-1.772,4.264-3.426,8.213-4.804,11.5l-2.974,7.104
					c-0.457,1.091-0.639,1.52-0.74,1.69l0.001,0c-0.002,0.004-0.284,0.482-0.332,0.553c-0.09,0.154-0.336,0.355-0.34,0.357
					c-0.053,0.054-0.1,0.114-0.139,0.164c-0.067,0.085-0.126,0.159-0.22,0.193c-0.13,0.065-0.263,0.081-0.35,0.09
					c-0.03,0.003-0.056,0.005-0.076,0.011c-0.097,0.02-0.143,0.039-0.185,0.056c-0.045,0.018-0.086,0.034-0.142,0.047
					c-0.233,0.035-0.455,0.068-0.752,0.102c-0.516,0.088-1.204,0.176-2.076,0.287l-0.34,0.044c-1.358,0.157-3.116,0.322-5.152,0.512
					c-1.072,0.101-2.232,0.209-3.472,0.329l-3.824,0.373c-6.75,0.661-15.151,1.483-24.24,2.253l-24.385,2.103
					c-1.231,0.105-2.459,0.159-3.649,0.159c-9.635,0-17.421-3.401-21.925-9.575c-5.003-6.86-5.392-16.76-1.069-27.164l1.578-3.576
					c3.761-9.042,7.506-17.079,10.831-23.24c1.482-2.746,3.048-5.331,4.528-7.477c0.283-0.411,0.554-0.66,0.815-0.901
					c0.148-0.136,0.289-0.266,0.427-0.421c-5.286-2.23-9.503-4.149-12.536-5.705l-2.148-1.018l1.246-2.037l7.809-12.637
					l-14.273,2.466c-0.425,0.073-0.856,0.109-1.283,0.109c-3.757,0-6.962-2.751-7.619-6.541c-0.694-4.125,2.029-7.982,6.2-8.793
					v-0.106l0.134-0.006c0.094-0.053,0.289-0.164,0.638-0.192l0.118,0l15.305-1.346l-3.264-3.264l-0.441-0.258
					c-0.444-0.266-0.902-0.542-1.352-0.71l-0.584-0.237l-0.315-0.331c-0.468-0.529-0.802-0.883-1.138-1.139l-2.368-1.915
					l0.752-0.538l-6.806-6.703l-1.582-1.58l1.581-1.58c4.102-3.992,8.334-7.798,13.036-11.997c-0.182-0.237-0.366-0.507-0.574-0.813
					c-0.18-0.263-0.376-0.552-0.601-0.863c-1.098-1.52-2.795-3.893-4.838-6.941c-3.972-5.924-9.31-14.175-15.032-23.232
					c-5.849-9.267-6.962-18.899-3.054-26.429c3.93-7.571,12.298-12.266,23.562-13.22l24.491-2.103
					c13.211-1.12,23.32-1.863,28.17-2.206c3.864-0.279,6.822-0.44,8.623-0.527c0.534-0.017,1.001-0.039,1.41-0.059
					c0.388-0.019,0.723-0.034,1.011-0.041c0.299-0.007,0.518-0.007,0.744,0c0.039,0.002,0.075-0.002,0.11-0.004
					c0.095-0.006,0.204-0.012,0.327,0.006c0.09,0,0.237,0.034,0.449,0.106c0.071,0.024,0.117,0.06,0.166,0.097
					c0.039,0.03,0.088,0.067,0.172,0.112c0.069,0.023,0.407,0.188,0.434,0.207l0.039,0.039c0.002,0.003,0.199,0.284,0.305,0.409
					c0.016,0.016,0.064,0.059,0.083,0.077l0.052,0.066l0.048,0.075c0.136,0.21,0.321,0.495,0.671,1.055
					c0.181,0.29,0.397,0.639,0.64,1.032c0.365,0.589,0.79,1.278,1.252,2.014c1.039,1.66,3.185,5.082,5.886,9.354
					c2.103,3.328,3.255,6.282,4.161,8.801c30.675-15.179,68.11-29.358,114.431-43.342c36.463-11.006,71.345-16.702,103.678-16.928
					l0.167-0.001l-0.002,0.031h0.675c0.363-0.001,0.725-0.002,1.087-0.002c22.434,0,43.866,2.69,63.697,7.996
					c12.298,3.29,21.367,6.904,27.368,9.295c1.758,0.7,3.279,1.306,4.467,1.735l0.142,0.013
					c21.557,9.609,38.405,20.441,50.077,32.195c-0.002-0.005,0.027,0.005,0.056,0.017c0.046,0.019,0.093,0.038,0.13,0.063
					c0.093,0.073,0.179,0.167,0.269,0.268c0.09,0.1,0.183,0.203,0.263,0.264l0.119,0.11c0.183,0.149,0.361,0.303,0.549,0.467
					c0.23,0.2,0.468,0.406,0.766,0.647h0.109l0.044,0.038c0.169,0.146,0.351,0.3,0.543,0.463c0.793,0.671,1.78,1.506,2.83,2.594
					c0.235,0.234,0.492,0.481,0.763,0.741c0.956,0.919,2.146,2.063,3.242,3.476l0.017,0.014c0.023,0.022,0.045,0.043,0.069,0.065
					l0.444,0.506c1.238,1.417,2.641,3.023,3.893,4.992l0.069,0.108l-0.098,0.092c1.382,1.851,2.487,3.887,3.557,5.856l0.337,0.593
					h0.154v0.222c0.222,0.524,0.46,1.06,0.705,1.609c0.824,1.852,1.757,3.951,2.338,6.268l0.005,0.038v0.075
					c0.412,1.294,0.765,2.778,1.049,4.412c0.064,0.466,0.178,1.09,0.289,1.693c0.037,0.201,0.074,0.402,0.109,0.596h0.332
					l0.113,2.249c0.012,0.453,0.027,0.903,0.042,1.356c0.032,0.954,0.065,1.94,0.065,2.961v0.1
					c-0.071,1.376-0.176,2.828-0.315,4.324c-0.317,2.744-0.693,5.644-1.477,8.332c0.011,0.071,0.023,0.135-0.003,0.207l-0.036,0.103
					h-0.091c-0.606,2.717-1.497,5.191-2.292,7.259c-0.604,1.633-1.336,3.039-1.983,4.279c-0.355,0.681-0.69,1.325-0.964,1.93
					l-0.035,0.049l-0.086,0.081c-1.034,2.029-2.011,3.681-2.831,5.031c-0.648,1.143-1.332,2.06-1.882,2.797
					c-0.249,0.334-0.465,0.622-0.646,0.889c-0.957,1.354-1.781,2.412-2.091,2.802h0.045l-0.837,1.257h-0.103
					c-10.68,17.185-25.719,31.126-36.462,39.801c-5.52,4.408-9.221,7.022-9.258,7.048c-0.612,0.422-1.227,0.806-1.82,1.178
					c-0.383,0.24-0.761,0.476-1.127,0.716c-1.133,0.736-2.304,1.458-3.58,2.21c-1.051,0.613-2.098,1.214-3.138,1.812
					c-12.468,7.164-24.244,13.93-31.691,33.321c-5.453,14.161-11.116,22.095-18.363,25.728c-4.774,2.394-9.577,2.748-14.662,3.122
					c-1.973,0.145-4.012,0.295-6.093,0.571c-5.538,0.735-14.111,1.773-24.038,2.974c-18.018,2.181-40.443,4.896-60.15,7.641
					c-3.424,0.472-6.491,0.948-9.197,1.368C445.996,742.247,441.39,742.962,437.505,742.962z M303.479,684.108l0.64,0.176
					c24.204,6.65,59.22,15.239,88.58,18.389l0.055,0.006l0.039,0.039c4.152,4.224,8.888,9.706,15.356,17.775
					c10.381,12.861,15.688,19.139,22.837,21.285c1.991,0.598,4.062,0.877,6.519,0.877c3.861,0,8.456-0.713,14.274-1.616
					c2.707-0.42,5.776-0.896,9.202-1.369c19.709-2.745,42.135-5.46,60.155-7.642c9.926-1.202,18.499-2.239,24.035-2.974
					c2.09-0.277,4.134-0.427,6.111-0.573c5.054-0.372,9.827-0.724,14.546-3.091c7.173-3.596,12.791-11.479,18.214-25.563
					c7.486-19.493,19.308-26.286,31.825-33.477c1.04-0.598,2.086-1.199,3.136-1.811c1.272-0.749,2.439-1.469,3.567-2.202
					c0.368-0.241,0.747-0.478,1.132-0.719c0.591-0.37,1.203-0.753,1.808-1.17c0.035-0.025,3.729-2.635,9.24-7.036
					c10.739-8.671,25.778-22.614,36.438-39.796l0.045-0.073h0.109l0.559-0.839c0-0.006,0-0.014,0-0.021l-0.006-0.068l0.048-0.07
					c0.064-0.075,1.036-1.289,2.194-2.928c0.183-0.27,0.4-0.56,0.651-0.897c0.545-0.73,1.222-1.638,1.863-2.768
					c0.823-1.354,1.802-3.008,2.834-5.039l0.032-0.043l0.084-0.079c0.275-0.604,0.608-1.242,0.959-1.917
					c0.642-1.232,1.369-2.629,1.968-4.246c0.803-2.089,1.704-4.593,2.306-7.337l0.026-0.121h0.07
					c-0.001-0.031,0.003-0.063,0.015-0.096c0.775-2.656,1.148-5.542,1.464-8.269c0.138-1.488,0.244-2.936,0.314-4.3l0-0.092
					c0-1.016-0.033-2-0.064-2.951c-0.015-0.454-0.03-0.905-0.042-1.355l-0.098-1.953h-0.297l-0.023-0.127
					c-0.042-0.234-0.086-0.478-0.131-0.722c-0.111-0.607-0.226-1.234-0.29-1.702c-0.282-1.624-0.634-3.102-1.046-4.388l-0.007-0.047
					v-0.08c-0.575-2.284-1.5-4.364-2.317-6.199c-0.25-0.561-0.493-1.108-0.719-1.643l-0.002-0.005h-0.053l-0.41-0.754
					c-1.086-1.999-2.208-4.066-3.615-5.928l-0.084-0.111l0.113-0.107c-1.222-1.9-2.589-3.464-3.797-4.847l-0.43-0.493
					c-0.013-0.01-0.039-0.034-0.064-0.059l-0.031-0.03c-1.098-1.413-2.23-2.5-3.228-3.46c-0.273-0.262-0.531-0.51-0.769-0.747
					c-1.042-1.079-2.022-1.908-2.81-2.575c-0.177-0.15-0.344-0.292-0.502-0.427h-0.103l-0.043-0.034
					c-0.323-0.259-0.574-0.478-0.817-0.689c-0.186-0.162-0.361-0.314-0.55-0.468l-0.114-0.107c-0.092-0.068-0.195-0.182-0.295-0.293
					c-0.081-0.09-0.158-0.175-0.221-0.225c-0.008-0.005-0.038-0.015-0.066-0.027c-0.049-0.02-0.099-0.041-0.138-0.068
					c-11.659-11.739-28.466-22.545-49.973-32.134l-0.125-0.009c-1.198-0.431-2.729-1.042-4.502-1.748
					c-5.995-2.389-15.053-5.998-27.333-9.284c-19.806-5.299-41.21-7.985-63.618-7.985c-0.361,0-0.723,0.001-1.086,0.002h-1.007
					l0.002-0.028c-32.257,0.245-67.052,5.935-103.424,16.914c-46.384,14.002-83.85,28.198-114.539,43.4l-0.155,0.077l-0.058-0.163
					c-0.909-2.539-2.058-5.53-4.189-8.904c-2.701-4.272-4.847-7.694-5.886-9.355c-0.462-0.737-0.888-1.426-1.253-2.016
					c-0.243-0.393-0.459-0.741-0.64-1.031c-0.349-0.558-0.533-0.842-0.668-1.051l-0.056-0.086c-0.03-0.028-0.073-0.067-0.097-0.091
					c-0.102-0.119-0.254-0.332-0.31-0.411c-0.069-0.034-0.302-0.148-0.367-0.172c-0.125-0.065-0.186-0.111-0.234-0.148
					c-0.039-0.03-0.056-0.042-0.079-0.05c-0.24-0.082-0.339-0.091-0.37-0.091c-0.146-0.017-0.208-0.009-0.286-0.005
					c-0.042,0.003-0.082,0.005-0.119,0.005c-0.261-0.007-0.455-0.007-0.747,0c-0.286,0.007-0.619,0.023-1.004,0.041
					c-0.41,0.019-0.878,0.042-1.412,0.059c-1.797,0.086-4.752,0.247-8.613,0.526c-4.85,0.343-14.958,1.086-28.166,2.206
					l-24.491,2.103c-11.155,0.945-19.435,5.581-23.315,13.055c-3.856,7.429-2.747,16.95,3.041,26.122
					c5.721,9.054,11.058,17.303,15.028,23.225c2.041,3.044,3.735,5.414,4.832,6.932c0.227,0.314,0.425,0.604,0.606,0.87
					c0.239,0.351,0.446,0.654,0.65,0.909l0.092,0.114l-0.109,0.097c-4.743,4.234-9.005,8.066-13.133,12.082l-1.361,1.36l1.362,1.361
					l7.067,6.959l-0.72,0.515l2.05,1.658c0.353,0.27,0.698,0.635,1.175,1.174l0.287,0.302l0.493,0.186
					c0.475,0.178,0.947,0.46,1.402,0.734l0.406,0.237l0.011-0.013c0.13,0.09,0.191,0.133,0.199,0.195l0.697,0.697l0,0l2.594,2.594
					c0.044,0.049,0.059,0.102,0.048,0.163l0.125,0.175l-15.944,1.392c-0.246,0.02-0.392,0.093-0.476,0.14v0.059l-0.106,0.001v0.072
					l-0.125,0.024c-4.016,0.77-6.64,4.479-5.973,8.442c0.631,3.641,3.708,6.285,7.315,6.285c0.409,0,0.823-0.035,1.231-0.105
					l14.947-2.582l-9.235,14.963l1.842,0.874c3.068,1.573,7.343,3.516,12.712,5.778l0.186,0.078l-0.125,0.159
					c-0.194,0.248-0.396,0.434-0.591,0.614c-0.249,0.229-0.506,0.467-0.77,0.849c-1.474,2.137-3.034,4.712-4.511,7.448
					c-3.32,6.151-7.061,14.179-10.819,23.215l-1.578,3.576c-4.279,10.299-3.903,20.09,1.035,26.861
					c4.444,6.093,12.143,9.448,21.676,9.448c1.181,0,2.4-0.053,3.622-0.157l24.385-2.103c9.087-0.77,17.487-1.592,24.236-2.253
					l3.825-0.373c1.24-0.12,2.4-0.229,3.473-0.329c2.034-0.19,3.79-0.355,5.143-0.511l0.338-0.044
					c0.868-0.111,1.554-0.199,2.072-0.287c0.301-0.034,0.519-0.067,0.739-0.1c0.027-0.006,0.053-0.018,0.083-0.03
					c0.052-0.021,0.116-0.047,0.225-0.068c0.02-0.007,0.065-0.013,0.117-0.019c0.078-0.009,0.167-0.019,0.265-0.067
					c0.031-0.015,0.068-0.062,0.098-0.101c0.045-0.057,0.1-0.126,0.176-0.202c0.074-0.06,0.217-0.203,0.269-0.266v-0.014
					l0.039-0.044l0,0c-0.003,0,0.274-0.46,0.294-0.497l0.003,0.002c0.058-0.12,0.355-0.785,0.727-1.671l2.974-7.104
					c1.377-3.287,3.032-7.236,4.803-11.499c1.875-4.495,1.076-9.766-2.192-14.463c-1.189-1.708-2.965-3.279-4.682-4.799
					L303.479,684.108z M442.803,723.702c-4.035,0-7.196-3.115-7.196-7.091c0-4.035,3.161-7.196,7.196-7.196
					c3.968,0,7.196,3.228,7.196,7.196C449.999,720.588,446.838,723.702,442.803,723.702z M442.803,709.724
					c-3.862,0-6.888,3.026-6.888,6.888c0,3.803,3.026,6.783,6.888,6.783c3.862,0,6.888-2.979,6.888-6.783
					C449.691,712.814,446.601,709.724,442.803,709.724z M496.828,719.183c-3.976,0-7.091-3.161-7.091-7.196
					c0-4.035,3.115-7.196,7.091-7.196c4.035,0,7.196,3.161,7.196,7.196C504.024,716.022,500.863,719.183,496.828,719.183z
					 M496.828,705.099c-3.803,0-6.783,3.026-6.783,6.888c0,3.862,2.979,6.888,6.783,6.888c3.862,0,6.888-3.026,6.888-6.888
					C503.716,708.125,500.691,705.099,496.828,705.099z M550.959,714.664c-4.035,0-7.196-3.161-7.196-7.196
					c0-4.035,3.161-7.196,7.196-7.196c3.976,0,7.091,3.161,7.091,7.196C558.049,711.503,554.935,714.664,550.959,714.664z
					 M550.959,700.58c-3.862,0-6.888,3.026-6.888,6.888s3.026,6.888,6.888,6.888c3.803,0,6.782-3.026,6.782-6.888
					S554.762,700.58,550.959,700.58z"/>
				<path fill="#010101" stroke="#000000" stroke-miterlimit="10" d="M437.505,743.001c-2.491,0-4.594-0.283-6.619-0.891
					c-7.247-2.176-12.581-8.482-23.008-21.4c-6.437-8.031-11.152-13.49-15.284-17.7c-29.111-3.131-63.765-11.6-87.768-18.173
					c1.624,1.443,3.163,2.87,4.245,4.425c3.337,4.796,4.149,10.188,2.227,14.794c-1.788,4.302-3.46,8.293-4.804,11.5l-2.974,7.104
					c-0.444,1.06-0.633,1.507-0.737,1.687l-0.003,0.006c-0.007,0.015-0.29,0.492-0.335,0.558c-0.092,0.157-0.337,0.357-0.347,0.366
					c-0.045,0.047-0.089,0.101-0.126,0.148l-0.007,0.009c-0.068,0.086-0.132,0.168-0.237,0.205
					c-0.135,0.068-0.275,0.083-0.359,0.092l-0.019,0.002c-0.019,0.002-0.036,0.004-0.05,0.008c-0.098,0.02-0.142,0.039-0.181,0.055
					c-0.047,0.019-0.09,0.035-0.149,0.048c-0.211,0.032-0.448,0.068-0.755,0.103c-0.521,0.089-1.241,0.181-2.075,0.287l-0.34,0.044
					c-1.361,0.157-3.118,0.322-5.153,0.512c-1.072,0.1-2.232,0.209-3.471,0.329l-3.824,0.374c-6.736,0.66-15.118,1.48-24.24,2.254
					l-24.385,2.103c-1.231,0.105-2.46,0.159-3.652,0.159c-9.647,0-17.445-3.406-21.956-9.591c-5.011-6.87-5.402-16.785-1.074-27.201
					l1.578-3.577c3.761-9.044,7.507-17.081,10.833-23.242c1.482-2.746,3.049-5.333,4.53-7.481c0.284-0.412,0.555-0.662,0.817-0.904
					c0.132-0.122,0.264-0.243,0.391-0.382c-5.266-2.223-9.468-4.136-12.489-5.685l-2.185-1.036l1.268-2.074l7.764-12.564
					l-14.188,2.451c-0.426,0.073-0.86,0.11-1.289,0.11c-3.777,0-6.997-2.764-7.657-6.573c-0.695-4.131,2.027-8.003,6.199-8.831
					v-0.111l0.162-0.007c0.1-0.057,0.299-0.165,0.646-0.193l0.121,0l15.22-1.339l-3.202-3.202l-0.437-0.255
					c-0.448-0.269-0.902-0.542-1.346-0.707l-0.598-0.246l-0.315-0.331c-0.466-0.527-0.801-0.881-1.133-1.135l-2.408-1.947
					l0.755-0.541l-6.774-6.671l-1.609-1.608l0.027-0.027l1.581-1.58c4.114-4.003,8.327-7.792,13.011-11.974
					c-0.18-0.237-0.362-0.504-0.554-0.786l-0.021-0.031c-0.17-0.25-0.363-0.532-0.579-0.831c-1.099-1.522-2.797-3.897-4.839-6.943
					c-3.975-5.929-9.313-14.18-15.033-23.233c-5.856-9.279-6.97-18.925-3.056-26.467c3.937-7.583,12.316-12.286,23.594-13.241
					l24.49-2.103c13.206-1.119,23.318-1.862,28.171-2.206c3.862-0.279,6.821-0.44,8.624-0.527c0.535-0.017,1-0.039,1.41-0.058
					c0.398-0.019,0.726-0.034,1.012-0.041c0.301-0.006,0.519-0.006,0.746,0c0.033,0.001,0.058,0,0.085-0.003l0.021-0.002
					c0.104-0.006,0.229-0.009,0.335,0.007h0.001c0.092,0,0.247,0.036,0.455,0.108c0.077,0.026,0.127,0.064,0.176,0.102
					c0.039,0.03,0.086,0.066,0.167,0.109c0.064,0.02,0.406,0.187,0.438,0.209l0.055,0.056c0.076,0.107,0.215,0.301,0.298,0.399
					c0.008,0.007,0.031,0.029,0.052,0.048l0.029,0.026l0.056,0.07l0.051,0.078c0.135,0.208,0.32,0.494,0.671,1.056
					c0.164,0.262,0.356,0.572,0.57,0.919l0.11,0.179c0.359,0.581,0.767,1.24,1.211,1.949c0.819,1.309,3.031,4.839,5.886,9.354
					c2.023,3.201,3.191,6.106,4.15,8.768c30.672-15.174,68.093-29.346,114.398-43.325c36.468-11.008,71.354-16.703,103.688-16.93
					l0.208-0.002l-0.002,0.031h0.634c0.364-0.001,0.726-0.002,1.087-0.002c22.439,0,43.873,2.691,63.707,7.997
					c12.302,3.291,21.371,6.905,27.372,9.297l0.017,0.007c1.75,0.697,3.261,1.3,4.444,1.727l0.149,0.016
					c21.555,9.607,38.403,20.438,50.077,32.193c0.01,0.002,0.026,0.008,0.054,0.019c0.048,0.02,0.097,0.04,0.137,0.067
					c0.099,0.077,0.189,0.177,0.276,0.274c0.092,0.102,0.182,0.201,0.258,0.259l0.122,0.113c0.184,0.149,0.369,0.31,0.548,0.466
					c0.226,0.197,0.461,0.4,0.754,0.638h0.109l0.055,0.047c0.169,0.146,0.351,0.299,0.543,0.462c0.797,0.675,1.783,1.51,2.833,2.597
					c0.238,0.236,0.504,0.492,0.762,0.74c0.958,0.922,2.149,2.065,3.245,3.48l0.011,0.007c0.025,0.023,0.047,0.045,0.071,0.066
					l0.447,0.51c1.239,1.418,2.643,3.025,3.897,4.996l0.086,0.135l-0.096,0.09c1.372,1.842,2.47,3.865,3.533,5.821l0.006,0.012
					l0.326,0.573h0.17v0.253c0.229,0.54,0.48,1.104,0.701,1.601c0.824,1.853,1.758,3.953,2.341,6.274l0.006,0.043l0,0.074
					c0.412,1.295,0.765,2.779,1.048,4.411c0.065,0.476,0.184,1.122,0.289,1.693l0.021,0.116c0.028,0.151,0.055,0.301,0.082,0.448
					h0.337l0.115,2.286c0.01,0.401,0.023,0.798,0.036,1.197l0.005,0.16c0.031,0.899,0.065,1.919,0.065,2.962v0.1
					c-0.07,1.372-0.176,2.827-0.315,4.328c-0.317,2.742-0.692,5.642-1.476,8.331c0.012,0.075,0.021,0.142-0.006,0.217l-0.045,0.128
					h-0.087c-0.608,2.714-1.497,5.179-2.287,7.234c-0.607,1.641-1.339,3.045-1.984,4.283c-0.355,0.681-0.69,1.324-0.963,1.928
					l-0.038,0.055l-0.086,0.082c-1.031,2.024-2.009,3.678-2.83,5.028c-0.651,1.148-1.335,2.064-1.884,2.8l-0.011,0.015
					c-0.245,0.328-0.456,0.611-0.633,0.872c-0.976,1.381-1.795,2.428-2.043,2.742h0.037l-0.888,1.334h-0.102
					c-10.682,17.181-25.721,31.122-36.458,39.793c-5.518,4.405-9.227,7.027-9.26,7.05c-0.607,0.418-1.215,0.799-1.804,1.168
					l-0.046,0.029c-0.381,0.238-0.74,0.464-1.098,0.698c-1.137,0.738-2.308,1.461-3.581,2.21c-1.07,0.624-2.169,1.255-3.139,1.812
					c-12.462,7.161-24.232,13.924-31.675,33.301c-5.456,14.17-11.125,22.111-18.382,25.748c-4.781,2.398-9.588,2.752-14.676,3.126
					c-1.97,0.145-4.007,0.295-6.091,0.571c-5.593,0.742-14.553,1.826-24.038,2.974l-0.03,0.004
					c-18.01,2.181-40.424,4.894-60.119,7.638c-3.451,0.476-6.504,0.95-9.197,1.368l-0.04,0.006
					C445.978,742.289,441.385,743.001,437.505,743.001z M304.528,684.675l0.16,0.044c24.011,6.579,58.755,15.08,87.929,18.216
					l0.014,0.001l0.01,0.01c4.136,4.212,8.855,9.676,15.299,17.715c10.416,12.906,15.744,19.205,22.97,21.374
					c2.017,0.606,4.113,0.888,6.597,0.888c3.873,0,8.465-0.711,14.277-1.611l0.039-0.006c2.694-0.418,5.747-0.892,9.198-1.368
					c19.696-2.743,42.11-5.457,60.12-7.638l0.03-0.004c9.485-1.148,18.445-2.232,24.037-2.974c2.086-0.276,4.124-0.427,6.096-0.572
					c5.081-0.374,9.88-0.727,14.647-3.118c7.238-3.628,12.895-11.556,18.345-25.707c7.451-19.403,19.233-26.173,31.707-33.34
					c0.97-0.557,2.07-1.189,3.139-1.812c1.272-0.749,2.442-1.471,3.578-2.208c0.357-0.234,0.718-0.46,1.099-0.699l0.046-0.029
					c0.588-0.368,1.196-0.749,1.802-1.166c0.032-0.023,3.74-2.643,9.255-7.047c10.736-8.669,25.775-22.61,36.453-39.791l0.011-0.018
					h0.104l0.786-1.18h-0.053l0.05-0.063c0.164-0.206,1.035-1.307,2.09-2.8c0.178-0.262,0.39-0.546,0.635-0.874l0.011-0.015
					c0.548-0.734,1.23-1.648,1.88-2.793c0.821-1.351,1.799-3.005,2.83-5.029l0.008-0.01l0.086-0.081l0.029-0.043
					c0.271-0.599,0.606-1.243,0.961-1.924c0.645-1.237,1.375-2.639,1.981-4.275c0.792-2.061,1.684-4.533,2.291-7.254l0.006-0.03
					h0.094l0.027-0.077c0.022-0.06,0.013-0.117,0.003-0.182l-0.002-0.008l0.002-0.015c0.784-2.685,1.159-5.585,1.476-8.326
					c0.139-1.498,0.245-2.953,0.315-4.322v-0.097c0-1.042-0.034-2.061-0.065-2.96l-0.005-0.16c-0.013-0.399-0.026-0.797-0.036-1.197
					l-0.111-2.212h-0.328l-0.006-0.032c-0.028-0.157-0.058-0.318-0.087-0.48l-0.021-0.117c-0.105-0.572-0.224-1.219-0.289-1.695
					c-0.283-1.63-0.636-3.113-1.047-4.405l-0.002-0.012l-0.004-0.109c-0.58-2.31-1.513-4.407-2.335-6.257
					c-0.223-0.5-0.475-1.067-0.705-1.61l-0.003-0.015v-0.184h-0.138l-0.355-0.625c-1.067-1.964-2.169-3.994-3.548-5.84l-0.02-0.028
					l0.1-0.094l-0.052-0.081c-1.251-1.966-2.653-3.572-3.89-4.987l-0.443-0.507c-0.021-0.019-0.044-0.04-0.068-0.062l-0.015-0.011
					c-1.099-1.416-2.287-2.558-3.242-3.476c-0.261-0.25-0.528-0.507-0.766-0.744c-1.048-1.085-2.033-1.919-2.824-2.589
					c-0.197-0.167-0.378-0.32-0.547-0.466l-0.033-0.028h-0.108l-0.01-0.008c-0.3-0.242-0.537-0.448-0.767-0.648
					c-0.179-0.155-0.363-0.316-0.548-0.466l-0.121-0.112c-0.08-0.059-0.172-0.162-0.261-0.261c-0.089-0.099-0.177-0.197-0.269-0.268
					c-0.026-0.018-0.06-0.033-0.096-0.048l0.037,0.095l-0.13-0.131c-11.668-11.751-28.509-22.579-50.059-32.185l-0.145-0.015
					c-1.186-0.428-2.699-1.031-4.451-1.729l-0.017-0.006c-6-2.391-15.066-6.004-27.364-9.294
					c-19.827-5.305-41.255-7.995-63.687-7.995c-0.361,0-0.723,0.001-1.087,0.002h-0.716l0.002-0.031l-0.125,0.001
					c-32.327,0.226-67.206,5.921-103.667,16.926c-46.321,13.984-83.75,28.16-114.425,43.34l-0.039,0.019l-0.014-0.041
					c-0.894-2.487-2.027-5.422-4.157-8.794c-2.854-4.514-5.067-8.045-5.886-9.354c-0.445-0.71-0.852-1.369-1.212-1.95l-0.11-0.178
					c-0.214-0.347-0.406-0.656-0.57-0.919c-0.35-0.562-0.535-0.847-0.671-1.055l-0.048-0.075l-0.05-0.063l-0.024-0.022
					c-0.021-0.019-0.045-0.041-0.056-0.052c-0.088-0.103-0.229-0.299-0.305-0.407l-0.04-0.041c-0.019-0.012-0.352-0.175-0.419-0.197
					c-0.093-0.049-0.145-0.089-0.183-0.118c-0.049-0.037-0.09-0.068-0.155-0.091c-0.201-0.069-0.347-0.104-0.435-0.104
					c-0.06-0.008-0.115-0.012-0.175-0.012c-0.054,0-0.104,0.003-0.15,0.006l-0.02,0.002c-0.031,0.003-0.062,0.004-0.095,0.003
					c-0.224-0.006-0.443-0.006-0.741,0c-0.285,0.007-0.613,0.022-1.01,0.041c-0.41,0.019-0.875,0.041-1.41,0.058
					c-1.801,0.086-4.76,0.248-8.621,0.527c-4.852,0.343-14.964,1.087-28.17,2.206l-24.491,2.103
					c-11.251,0.953-19.608,5.64-23.532,13.2c-3.901,7.517-2.788,17.136,3.053,26.39c5.719,9.053,11.058,17.303,15.032,23.231
					c2.041,3.045,3.738,5.419,4.838,6.94c0.217,0.299,0.41,0.583,0.58,0.832l0.021,0.031c0.199,0.292,0.387,0.569,0.573,0.811
					l0.022,0.028l-0.027,0.024c-4.694,4.191-8.915,7.987-13.035,11.996l-1.553,1.552l1.554,1.553l6.839,6.735l-0.748,0.535
					l2.329,1.883c0.337,0.258,0.674,0.614,1.143,1.144l0.308,0.324l0.576,0.234c0.449,0.168,0.907,0.442,1.349,0.707l0.456,0.269
					l3.322,3.322l-0.082,0.007l-15.305,1.346l-0.122,0c-0.336,0.027-0.527,0.135-0.619,0.186l-0.018,0.006l-0.097,0.005v0.101
					l-0.031,0.006c-4.149,0.806-6.859,4.649-6.169,8.748c0.654,3.772,3.842,6.509,7.581,6.509c0.425,0,0.854-0.037,1.276-0.109
					l14.357-2.481l-0.045,0.073l-7.809,12.637l-1.223,2l2.109,1c3.03,1.554,7.247,3.473,12.535,5.704l0.05,0.021l-0.036,0.04
					c-0.141,0.158-0.287,0.293-0.429,0.423c-0.262,0.242-0.53,0.489-0.809,0.894c-1.48,2.145-3.045,4.73-4.526,7.473
					c-3.324,6.159-7.069,14.194-10.83,23.236l-1.578,3.577c-4.317,10.39-3.929,20.277,1.065,27.126
					c4.496,6.164,12.272,9.559,21.894,9.559c1.19,0,2.416-0.053,3.645-0.159l24.385-2.103c9.121-0.773,17.504-1.594,24.239-2.253
					l3.824-0.373c1.239-0.12,2.4-0.229,3.472-0.329c2.034-0.191,3.791-0.355,5.151-0.512l0.339-0.044
					c0.833-0.106,1.553-0.199,2.074-0.287c0.286-0.032,0.492-0.063,0.752-0.102c0.05-0.011,0.089-0.026,0.134-0.044
					c0.04-0.016,0.089-0.037,0.191-0.058c0.014-0.005,0.036-0.007,0.061-0.01l0.019-0.002c0.079-0.008,0.211-0.023,0.337-0.086
					c0.089-0.032,0.143-0.102,0.207-0.182l0.007-0.009c0.037-0.047,0.084-0.105,0.135-0.157c0.006-0.005,0.248-0.203,0.334-0.35
					c0.04-0.059,0.245-0.405,0.311-0.518l0.02-0.036c0.101-0.169,0.299-0.639,0.737-1.685l2.974-7.104
					c1.343-3.207,3.015-7.198,4.804-11.5c1.911-4.581,1.102-9.947-2.219-14.721c-1.105-1.587-2.691-3.044-4.357-4.521
					L304.528,684.675z M437.505,742.692c-2.46,0-4.535-0.279-6.53-0.878c-7.159-2.149-12.47-8.43-22.856-21.298
					c-6.466-8.066-11.201-13.547-15.353-17.772l-0.029-0.03l-0.041-0.005c-29.363-3.15-64.381-11.739-88.587-18.39l-0.48-0.132
					l0.501,0.443c1.719,1.522,3.497,3.094,4.688,4.806c3.275,4.708,4.076,9.992,2.195,14.499c-1.728,4.16-3.377,8.096-4.702,11.258
					l-0.101,0.241l-2.974,7.104c-0.371,0.886-0.671,1.556-0.727,1.673l-0.017,0.035l-0.006-0.003
					c-0.021,0.035-0.056,0.095-0.095,0.16c-0.061,0.103-0.142,0.237-0.17,0.286l0.003,0.006l-0.048,0.054v0.013l-0.009,0.011
					c-0.053,0.063-0.198,0.208-0.275,0.271c-0.072,0.072-0.126,0.139-0.17,0.196c-0.04,0.051-0.076,0.094-0.112,0.111
					c-0.104,0.052-0.2,0.063-0.277,0.071c-0.059,0.007-0.096,0.013-0.109,0.018c-0.108,0.022-0.169,0.046-0.219,0.066l-0.018,0.007
					c-0.026,0.01-0.051,0.02-0.075,0.026l-0.019,0.003c-0.212,0.031-0.43,0.064-0.724,0.097c-0.518,0.088-1.203,0.176-2.071,0.287
					l-0.338,0.044c-1.372,0.159-3.204,0.33-5.144,0.511c-1.073,0.1-2.233,0.209-3.473,0.329l-3.909,0.382
					c-6.729,0.658-15.103,1.477-24.152,2.244l-24.385,2.103c-1.225,0.104-2.445,0.157-3.625,0.157
					c-9.546,0-17.256-3.361-21.707-9.465c-4.946-6.781-5.324-16.585-1.039-26.898l1.578-3.577
					c3.757-9.036,7.499-17.064,10.82-23.217c1.478-2.738,3.039-5.315,4.513-7.452c0.265-0.385,0.524-0.623,0.774-0.854
					c0.196-0.181,0.397-0.366,0.589-0.611l0.093-0.119l-0.139-0.059c-5.372-2.263-9.65-4.208-12.715-5.779l-1.88-0.892l0.023-0.036
					l9.19-14.89l-14.863,2.567c-0.411,0.07-0.827,0.106-1.237,0.106c-3.626,0-6.719-2.656-7.353-6.317
					c-0.67-3.984,1.967-7.712,6.004-8.487l0.094-0.018v-0.078l0.106-0.001v-0.043l0.02-0.011c0.103-0.057,0.251-0.125,0.492-0.144
					l15.876-1.386l-0.095-0.133l0.003-0.016c0.009-0.05-0.004-0.092-0.039-0.131l-3.298-3.298l-0.002-0.013
					c-0.005-0.04-0.049-0.075-0.155-0.149l-0.009,0.011l-0.434-0.254c-0.454-0.273-0.924-0.555-1.396-0.731l-0.507-0.196
					l-0.287-0.302c-0.476-0.538-0.819-0.901-1.17-1.169l-2.09-1.69l0.724-0.518l-7.034-6.927l-1.39-1.389l1.388-1.387
					c4.128-4.016,8.391-7.849,13.135-12.084l0.082-0.073l-0.069-0.085c-0.205-0.255-0.412-0.559-0.651-0.91
					c-0.194-0.285-0.386-0.565-0.606-0.87c-1.096-1.516-2.789-3.885-4.832-6.933c-3.97-5.922-9.307-14.17-15.028-23.226
					c-5.796-9.183-6.905-18.718-3.043-26.16c3.886-7.486,12.177-12.131,23.346-13.076l24.491-2.103
					c13.233-1.121,23.327-1.863,28.167-2.205c3.876-0.28,6.824-0.441,8.614-0.526c0.521-0.017,0.983-0.039,1.412-0.059l0.053-0.003
					c0.364-0.017,0.678-0.032,0.952-0.038c0.292-0.007,0.487-0.007,0.749,0c0.035,0,0.074-0.002,0.115-0.005l0.031-0.002
					c0.073-0.004,0.153-0.006,0.263,0.007h0.001c0.038,0,0.143,0.013,0.377,0.093c0.029,0.01,0.048,0.025,0.088,0.055
					c0.045,0.035,0.105,0.08,0.23,0.146c0.058,0.02,0.26,0.12,0.347,0.162l0.034,0.022c0.074,0.105,0.212,0.297,0.307,0.408
					c0.018,0.018,0.052,0.049,0.08,0.075l0.014,0.012l0.078,0.118c0.134,0.207,0.317,0.491,0.653,1.027
					c0.16,0.256,0.346,0.557,0.554,0.893l0.136,0.22c0.357,0.577,0.761,1.231,1.202,1.934c1.036,1.656,3.179,5.073,5.886,9.355
					c2.135,3.379,3.284,6.371,4.193,8.912l0.044,0.122l0.116-0.058c30.69-15.202,68.158-29.399,114.545-43.402
					c36.375-10.98,71.175-16.671,103.435-16.916l0.041,0l-0.002,0.029h0.966c0.363-0.002,0.725-0.002,1.086-0.002
					c22.411,0,43.818,2.687,63.628,7.987c12.283,3.286,21.343,6.896,27.338,9.285c1.769,0.705,3.298,1.314,4.496,1.746l0.133,0.012
					c21.51,9.591,38.328,20.405,49.985,32.142c0.029,0.02,0.076,0.04,0.125,0.06l0.029,0.011c0.02,0.007,0.036,0.015,0.043,0.018
					c0.071,0.056,0.151,0.146,0.229,0.232c0.1,0.111,0.2,0.223,0.289,0.288l0.118,0.109c0.181,0.147,0.35,0.294,0.529,0.45
					l0.042,0.036c0.237,0.205,0.481,0.418,0.793,0.668l0.032,0.026h0.104l0.011,0.009c0.157,0.135,0.325,0.277,0.501,0.427
					c0.789,0.668,1.769,1.498,2.812,2.577c0.221,0.22,0.46,0.45,0.713,0.693l0.055,0.053c0.999,0.96,2.131,2.048,3.232,3.464
					l0.028,0.025c0.024,0.023,0.048,0.046,0.061,0.056l0.435,0.497c1.21,1.384,2.578,2.95,3.801,4.851l0.017,0.027l-0.111,0.105
					l0.063,0.083c1.405,1.859,2.526,3.922,3.609,5.916l0.009,0.017l0.399,0.734h0.055l0.01,0.022
					c0.237,0.56,0.495,1.138,0.722,1.649c0.817,1.838,1.743,3.919,2.319,6.206l0.001,0.089l0.006,0.041
					c0.411,1.282,0.763,2.76,1.046,4.387c0.064,0.471,0.179,1.096,0.29,1.702c0.045,0.244,0.089,0.488,0.131,0.722l0.017,0.096
					h0.302l0.1,1.99c0.011,0.443,0.026,0.887,0.041,1.334l0.001,0.021c0.03,0.9,0.064,1.921,0.064,2.952l0,0.092
					c-0.071,1.369-0.176,2.816-0.315,4.303c-0.315,2.728-0.688,5.614-1.465,8.276c-0.01,0.028-0.014,0.055-0.014,0.084l0.001,0.039
					h-0.078l-0.02,0.091c-0.603,2.748-1.505,5.254-2.308,7.343c-0.6,1.622-1.328,3.018-1.97,4.25l-0.008,0.016
					c-0.348,0.669-0.677,1.301-0.95,1.899l-0.008,0.012l-0.084,0.079l-0.028,0.038c-1.027,2.02-2.008,3.679-2.832,5.036
					c-0.642,1.132-1.32,2.041-1.865,2.771l-0.019,0.025c-0.243,0.327-0.454,0.609-0.632,0.871c-1.161,1.642-2.129,2.854-2.196,2.931
					l-0.037,0.055l0.005,0.09l-0.006,0.01l-0.57,0.857h-0.109l-0.034,0.055c-10.663,17.186-25.705,31.132-36.446,39.805
					c-5.397,4.31-9.086,6.927-9.24,7.036c-0.617,0.424-1.252,0.822-1.812,1.173c-0.372,0.233-0.756,0.473-1.131,0.718
					c-1.129,0.733-2.296,1.453-3.568,2.203c-1.026,0.598-2.062,1.194-3.064,1.77l-0.072,0.041
					c-12.511,7.188-24.328,13.977-31.809,33.458c-5.427,14.093-11.05,21.983-18.232,25.583c-4.727,2.371-9.503,2.722-14.561,3.095
					c-1.973,0.145-4.013,0.295-6.109,0.572c-5.547,0.736-14.115,1.773-24.036,2.974c-17.994,2.178-40.389,4.889-60.154,7.641
					c-3.43,0.473-6.496,0.949-9.202,1.369l-0.011,0.002C445.96,741.98,441.367,742.692,437.505,742.692z M303.33,684.027l0.8,0.22
					c24.203,6.65,59.216,15.239,88.575,18.388l0.068,0.007l0.048,0.049c4.154,4.227,8.891,9.709,15.358,17.778
					c10.376,12.855,15.68,19.129,22.818,21.272c1.988,0.597,4.056,0.875,6.508,0.875c3.856,0,8.446-0.712,14.257-1.614l0.011-0.002
					c2.706-0.42,5.773-0.896,9.203-1.369c19.766-2.753,42.161-5.463,60.156-7.641c9.92-1.201,18.487-2.238,24.034-2.974
					c2.098-0.277,4.139-0.428,6.113-0.573c5.049-0.372,9.818-0.723,14.532-3.087c7.164-3.591,12.775-11.469,18.195-25.542
					c7.491-19.506,19.319-26.302,31.842-33.497l0.072-0.041c1.002-0.576,2.038-1.172,3.064-1.769
					c1.272-0.749,2.438-1.469,3.565-2.201c0.375-0.246,0.76-0.486,1.132-0.72c0.559-0.35,1.194-0.747,1.807-1.169
					c0.156-0.11,3.843-2.726,9.238-7.034c10.737-8.669,25.772-22.609,36.429-39.786l0.057-0.091h0.11l0.541-0.813
					c0-0.003,0-0.007,0-0.01l-0.007-0.077l0.056-0.081c0.069-0.081,1.035-1.289,2.194-2.928c0.179-0.263,0.389-0.546,0.633-0.873
					l0.019-0.025c0.544-0.728,1.22-1.635,1.861-2.764c0.824-1.356,1.804-3.014,2.833-5.037l0.035-0.048l0.082-0.078
					c0.273-0.598,0.6-1.229,0.948-1.896l0.008-0.016c0.641-1.23,1.368-2.624,1.966-4.242c0.802-2.087,1.703-4.589,2.305-7.332
					l0.033-0.151h0.064c0.003-0.024,0.007-0.047,0.016-0.07c0.774-2.655,1.147-5.537,1.462-8.261
					c0.138-1.485,0.244-2.931,0.314-4.298l0-0.089c0-1.03-0.034-2.05-0.064-2.949l-0.001-0.021c-0.015-0.447-0.03-0.891-0.041-1.334
					l-0.096-1.915h-0.292l-0.028-0.159c-0.042-0.234-0.086-0.477-0.131-0.722c-0.111-0.606-0.225-1.232-0.29-1.703
					c-0.282-1.622-0.633-3.097-1.045-4.381l-0.008-0.053l-0.001-0.086c-0.572-2.27-1.497-4.349-2.313-6.183
					c-0.225-0.506-0.48-1.078-0.712-1.626h-0.051l-0.011-0.02l-0.419-0.771c-1.082-1.992-2.201-4.052-3.603-5.906l-0.105-0.138
					l0.115-0.109c-1.215-1.884-2.574-3.44-3.774-4.813l-0.432-0.495c-0.008-0.006-0.035-0.031-0.062-0.056l-0.031-0.029
					c-1.101-1.417-2.232-2.503-3.229-3.461l-0.055-0.053c-0.253-0.244-0.492-0.474-0.714-0.695c-1.041-1.077-2.02-1.906-2.806-2.572
					c-0.174-0.147-0.338-0.286-0.492-0.419h-0.102l-0.053-0.043c-0.314-0.252-0.559-0.465-0.796-0.67l-0.042-0.036
					c-0.179-0.155-0.348-0.302-0.53-0.45l-0.116-0.108c-0.091-0.067-0.194-0.181-0.294-0.292c-0.079-0.087-0.157-0.174-0.219-0.224
					l0,0c-0.001,0-0.013-0.004-0.026-0.009l-0.03-0.012c-0.053-0.022-0.105-0.044-0.146-0.073
					c-11.654-11.733-28.463-22.541-49.961-32.127l-0.128-0.011c-1.201-0.432-2.731-1.042-4.504-1.748
					c-5.994-2.388-15.05-5.998-27.329-9.282c-19.802-5.298-41.203-7.984-63.608-7.984c-0.361,0-0.723,0.001-1.086,0.002h-1.048
					l0.002-0.028c-32.24,0.249-67.019,5.939-103.371,16.912c-46.383,14.002-83.846,28.197-114.533,43.397l-0.194,0.096l-0.073-0.204
					c-0.908-2.536-2.055-5.524-4.186-8.896c-2.707-4.281-4.85-7.699-5.886-9.355c-0.441-0.704-0.845-1.358-1.202-1.935l-0.136-0.219
					c-0.208-0.337-0.394-0.637-0.554-0.893c-0.335-0.536-0.518-0.819-0.652-1.026l-0.079-0.116c-0.029-0.027-0.064-0.059-0.084-0.08
					c-0.096-0.113-0.232-0.3-0.308-0.407l-0.01-0.005c-0.078-0.039-0.286-0.14-0.344-0.161c-0.136-0.071-0.198-0.118-0.244-0.153
					c-0.039-0.03-0.052-0.039-0.068-0.044c-0.241-0.083-0.335-0.089-0.358-0.089c-0.113-0.012-0.185-0.011-0.254-0.007l-0.031,0.002
					c-0.043,0.003-0.083,0.005-0.121,0.005c-0.262-0.007-0.455-0.007-0.746,0c-0.273,0.006-0.586,0.021-0.95,0.038l-0.053,0.003
					c-0.429,0.02-0.891,0.042-1.413,0.059c-1.789,0.085-4.737,0.246-8.611,0.526c-4.839,0.342-14.934,1.084-28.166,2.206
					l-24.49,2.103c-11.141,0.943-19.41,5.572-23.284,13.035c-3.849,7.417-2.742,16.924,3.04,26.084
					c5.721,9.054,11.058,17.302,15.027,23.224c2.043,3.048,3.735,5.415,4.831,6.931c0.221,0.306,0.413,0.586,0.607,0.871
					c0.239,0.351,0.445,0.653,0.648,0.906l0.115,0.143l-0.137,0.122c-4.744,4.234-9.006,8.066-13.132,12.081l-1.333,1.332
					l1.335,1.334l7.099,6.992l-0.716,0.512l2.01,1.626c0.355,0.271,0.701,0.637,1.179,1.178l0.279,0.294l0.485,0.183
					c0.479,0.179,0.951,0.463,1.408,0.737l0.378,0.221l0.013-0.015l0.029,0.02c0.129,0.089,0.197,0.137,0.213,0.208l3.282,3.282
					c0.048,0.054,0.068,0.114,0.061,0.181l0.155,0.217l-0.067,0.006l-15.944,1.393c-0.211,0.017-0.346,0.073-0.441,0.124v0.074
					l-0.106,0.001v0.065l-0.157,0.03c-3.995,0.766-6.605,4.455-5.942,8.398c0.628,3.623,3.688,6.253,7.277,6.253
					c0.406,0,0.818-0.035,1.224-0.105l15.032-2.596l-0.045,0.073l-9.212,14.927l1.803,0.855c3.064,1.571,7.34,3.515,12.71,5.777
					l0.233,0.098l-0.156,0.199c-0.196,0.25-0.398,0.437-0.594,0.617c-0.25,0.23-0.505,0.466-0.766,0.844
					c-1.473,2.134-3.032,4.709-4.508,7.445c-3.32,6.151-7.061,14.177-10.818,23.211l-1.578,3.577
					c-4.274,10.287-3.899,20.063,1.031,26.823c4.437,6.083,12.124,9.432,21.645,9.432c1.178,0,2.396-0.053,3.619-0.157l24.385-2.103
					c9.049-0.767,17.423-1.586,24.152-2.244l3.909-0.381c1.24-0.121,2.4-0.229,3.473-0.329c1.94-0.182,3.772-0.353,5.142-0.511
					l0.337-0.044c0.867-0.111,1.551-0.199,2.07-0.287c0.295-0.033,0.513-0.066,0.724-0.097l0.016-0.002
					c0.018-0.005,0.039-0.013,0.061-0.022l0.013-0.005c0.057-0.023,0.122-0.049,0.231-0.071c0.015-0.006,0.051-0.012,0.121-0.019
					c0.075-0.008,0.159-0.018,0.252-0.064c0.024-0.011,0.064-0.062,0.085-0.089c0.049-0.063,0.105-0.131,0.179-0.205
					c0.071-0.058,0.202-0.188,0.258-0.253v-0.015l0.048-0.055l0.001,0.001c0.019-0.038,0.066-0.118,0.175-0.302
					c0.056-0.093,0.105-0.175,0.113-0.19l0.018-0.032l0.001,0c0.084-0.182,0.366-0.815,0.709-1.634l3.076-7.345
					c1.325-3.163,2.974-7.098,4.702-11.258c1.87-4.482,1.073-9.74-2.188-14.425c-1.186-1.704-2.96-3.274-4.676-4.792L303.33,684.027
					z M442.803,723.741c-4.057,0-7.235-3.132-7.235-7.129c0-4.057,3.178-7.235,7.235-7.235c3.989,0,7.235,3.245,7.235,7.235
					C450.038,720.609,446.86,723.741,442.803,723.741z M442.803,709.454c-4.014,0-7.158,3.144-7.158,7.158
					c0,3.955,3.144,7.052,7.158,7.052c4.014,0,7.158-3.098,7.158-7.052C449.96,712.665,446.749,709.454,442.803,709.454z
					 M442.803,723.433c-3.884,0-6.926-2.996-6.926-6.821c0-3.884,3.042-6.927,6.926-6.927c3.819,0,6.926,3.107,6.926,6.927
					C449.729,720.437,446.687,723.433,442.803,723.433z M442.803,709.762c-3.841,0-6.849,3.009-6.849,6.849
					c0,3.782,3.008,6.744,6.849,6.744c3.84,0,6.849-2.962,6.849-6.744C449.652,712.835,446.58,709.762,442.803,709.762z
					 M496.828,719.222c-3.998,0-7.129-3.178-7.129-7.235c0-4.057,3.131-7.235,7.129-7.235c4.057,0,7.235,3.178,7.235,7.235
					C504.063,716.044,500.885,719.222,496.828,719.222z M496.828,704.829c-3.955,0-7.052,3.144-7.052,7.158
					c0,4.014,3.098,7.158,7.052,7.158c4.014,0,7.158-3.144,7.158-7.158C503.985,707.973,500.842,704.829,496.828,704.829z
					 M496.828,718.913c-3.825,0-6.821-3.042-6.821-6.926c0-3.884,2.996-6.927,6.821-6.927c3.884,0,6.926,3.042,6.926,6.927
					C503.754,715.871,500.712,718.913,496.828,718.913z M496.828,705.138c-3.782,0-6.744,3.009-6.744,6.849
					c0,3.84,2.962,6.849,6.744,6.849c3.84,0,6.849-3.009,6.849-6.849C503.677,708.146,500.669,705.138,496.828,705.138z
					 M550.959,714.702c-4.057,0-7.235-3.178-7.235-7.235s3.178-7.235,7.235-7.235c3.998,0,7.129,3.178,7.129,7.235
					S554.956,714.702,550.959,714.702z M550.959,700.31c-4.014,0-7.158,3.144-7.158,7.158c0,4.014,3.144,7.158,7.158,7.158
					c3.955,0,7.052-3.144,7.052-7.158C558.011,703.454,554.913,700.31,550.959,700.31z M550.959,714.394
					c-3.884,0-6.926-3.043-6.926-6.927s3.042-6.927,6.926-6.927c3.825,0,6.821,3.043,6.821,6.927S554.784,714.394,550.959,714.394z
					 M550.959,700.618c-3.841,0-6.849,3.009-6.849,6.849s3.008,6.849,6.849,6.849c3.782,0,6.744-3.009,6.744-6.849
					S554.74,700.618,550.959,700.618z"/>
			</g>
			<g>
				<path fill="#010101" stroke="#000000" stroke-miterlimit="10" d="M437.505,745.892c-2.782,0-5.149-0.322-7.451-1.013
					c-8.067-2.422-13.62-8.965-24.426-22.353c-6.007-7.493-10.488-12.715-14.382-16.755c-25.613-2.851-55.247-9.689-78.341-15.771
					c2.646,4.999,3.05,10.403,1.062,15.168c-1.775,4.271-3.434,8.231-4.814,11.524l-2.966,7.085
					c-0.213,0.509-0.405,0.953-0.545,1.269c-0.065,0.149-0.15,0.34-0.262,0.549l0.008,0.004c-0.034,0.071-0.239,0.443-0.441,0.763
					c-0.195,0.332-0.455,0.648-0.781,0.946c-0.208,0.253-0.603,0.682-1.254,0.967c-0.363,0.164-0.692,0.245-0.957,0.29
					c-0.104,0.035-0.223,0.069-0.36,0.099l-0.21,0.039c-0.233,0.035-0.464,0.069-0.762,0.104c-0.567,0.093-1.255,0.181-2.116,0.292
					l-0.378,0.048c-1.388,0.161-3.16,0.327-5.213,0.519c-1.069,0.1-2.226,0.208-3.462,0.328l-3.828,0.373
					c-6.757,0.662-15.167,1.484-24.272,2.256l-24.38,2.102c-1.316,0.113-2.628,0.169-3.9,0.169
					c-10.595,0-19.222-3.828-24.292-10.779c-5.619-7.705-6.132-18.645-1.408-30.015l0.026-0.061l1.563-3.542
					c3.795-9.122,7.58-17.241,10.947-23.479c1.196-2.216,2.448-4.336,3.673-6.221c-3.195-1.39-5.869-2.621-8.09-3.724l-2.65-1.289
					l-3.469-1.645l2.946-4.817l4.396-7.114l-7.861,1.358c-0.592,0.102-1.19,0.152-1.782,0.152c-5.186,0-9.605-3.773-10.506-8.971
					c-0.823-4.888,1.793-9.494,6.157-11.427l11.528-1.791L200.82,606.92l3.472-3.469c3.567-3.47,7.216-6.79,11.179-10.339
					c-1.108-1.54-2.685-3.763-4.548-6.542c-3.986-5.945-9.34-14.219-15.076-23.298c-6.42-10.171-7.578-20.866-3.178-29.344
					c4.41-8.496,13.614-13.748,25.915-14.791l24.487-2.103c13.23-1.121,23.356-1.865,28.214-2.209
					c3.887-0.281,6.871-0.444,8.689-0.531l0.048-0.002c0.516-0.017,0.968-0.038,1.364-0.057c0.414-0.019,0.771-0.036,1.079-0.044
					c0.318-0.007,0.556-0.007,0.794-0.003c0.234-0.013,0.465-0.011,0.695,0.011c0.36,0.027,0.735,0.11,1.162,0.257
					c0.346,0.118,0.615,0.274,0.814,0.409c0.228,0.106,0.483,0.237,0.658,0.357l0.467,0.318l0.324,0.463
					c0.004,0.005,0.034,0.048,0.071,0.099l0.894,0.819l0.004,0.451c0.08,0.126,0.17,0.27,0.276,0.439
					c0.184,0.295,0.403,0.649,0.649,1.047c0.361,0.584,0.783,1.267,1.241,1.997c1.037,1.657,3.179,5.073,5.879,9.343
					c1.449,2.294,2.471,4.404,3.271,6.325c30.275-14.719,66.959-28.509,111.997-42.105c36.731-11.087,71.891-16.825,104.504-17.053
					l3.334-0.023l-0.004,0.054c22.188,0.109,43.401,2.829,63.071,8.092c12.465,3.335,21.63,6.987,27.695,9.404
					c1.504,0.599,2.832,1.128,3.903,1.527h0.215l0.599,0.267c21.684,9.665,38.712,20.587,50.625,32.468
					c0.025,0.016,0.051,0.033,0.077,0.05l0.187,0.136c0.283,0.222,0.49,0.453,0.627,0.605l0.135,0.128
					c0.155,0.128,0.304,0.256,0.457,0.389l0.993,0.749c0.162,0.14,0.337,0.288,0.521,0.444c0.837,0.708,1.878,1.589,3.021,2.77
					c0.221,0.219,0.459,0.448,0.71,0.689c0.978,0.94,2.185,2.1,3.359,3.579l0.034,0.03l0.555,0.637
					c1.307,1.496,2.788,3.191,4.159,5.346l1.372,2.157l-0.044,0.04c0.643,1.027,1.227,2.065,1.79,3.094l1.357,2.548
					c0.147,0.335,0.298,0.675,0.452,1.022c0.872,1.961,1.861,4.183,2.503,6.746l0.093,0.383c0.382,1.271,0.711,2.685,0.982,4.214
					l0.909,5.109c0.011,0.442,0.026,0.884,0.041,1.33c0.032,0.977,0.066,1.988,0.066,3.058l-0.004,0.258
					c-0.073,1.41-0.182,2.903-0.324,4.437l-0.007,0.069c-0.316,2.73-0.689,5.62-1.458,8.402c-0.024,0.266-0.424,1.487-0.424,1.487
					c-0.626,2.514-1.446,4.78-2.186,6.705c-0.667,1.8-1.442,3.287-2.126,4.6c-0.336,0.644-0.653,1.253-0.893,1.784l-0.415,0.709
					c-0.98,1.888-1.898,3.44-2.68,4.727c-0.734,1.287-1.5,2.314-2.061,3.065c-0.228,0.306-0.426,0.571-0.57,0.783l-0.032,0.047
					c-0.678,0.96-1.334,1.834-1.804,2.44l-1.902,2.855h-0.056c-10.828,16.895-25.606,30.567-36.236,39.15
					c-5.601,4.472-9.257,7.055-9.41,7.163l-0.028,0.019c-0.663,0.457-1.305,0.858-1.925,1.247c-0.367,0.23-0.728,0.456-1.079,0.685
					c-1.178,0.765-2.384,1.509-3.697,2.282c-1.067,0.622-2.119,1.227-3.165,1.827c-12.525,7.196-23.342,13.411-30.416,31.831
					c-5.736,14.895-11.837,23.313-19.785,27.296c-5.293,2.654-10.614,3.046-15.76,3.425c-1.931,0.142-3.927,0.289-5.924,0.554
					c-5.553,0.736-14.133,1.775-24.068,2.978c-18.008,2.18-40.419,4.893-60.101,7.635c-3.403,0.469-6.457,0.943-9.152,1.362
					C446.321,745.162,441.616,745.892,437.505,745.892z M676.798,593.417c-1.336,3.803-7.319,13.072-8.19,14.119
					c-15.329,18.424-48.839,40.927-88.169,52.557c-21.836,6.51-47.729,13.612-74.171,16.92c-14.729,1.86-30.834,2.727-50.681,2.727
					c-9.592,0-18.993-0.198-26.924-0.392c-67.473-1.654-126.131-9.632-179.325-24.391c-6.845-1.893-13.795-4.447-21.87-8.036
					l-4.652-2.41l-4.864,7.95c2.621,1.243,7.993,2.667,11.757,4.253l3.72,1.567c0,0-6.662,9.03-8.089,11.673
					c-3.274,6.066-6.972,14.001-10.692,22.948l-0.026,0.061l-1.562,3.541c-3.867,9.324-3.609,18.065,0.707,23.983
					c3.878,5.317,10.736,8.245,19.308,8.245c1.098,0,2.233-0.049,3.373-0.147l24.383-2.103c9.07-0.769,17.458-1.59,24.197-2.249
					l3.832-0.374c1.243-0.121,2.407-0.23,3.483-0.33c2.006-0.188,3.74-0.35,5.059-0.502l0.323-0.042
					c0.835-0.107,1.495-0.192,1.954-0.269l0.167-0.024c0.035-0.004,0.068-0.008,0.101-0.012c0.118-0.266,0.315-0.719,0.553-1.286
					l2.966-7.084c1.378-3.289,3.034-7.242,4.808-11.511c1.505-3.609,0.833-7.75-1.891-11.664c-0.988-1.42-2.557-2.808-4.218-4.278
					l-10.074-8.916l12.806,3.519c24.1,6.622,58.951,15.172,88.117,18.301l1.097,0.118l0.774,0.787
					c4.224,4.298,9.021,9.849,15.552,17.996c10.736,13.302,15.365,18.502,21.393,20.311c1.71,0.514,3.514,0.753,5.677,0.753
					c3.635,0,7.909-0.663,13.825-1.581c2.719-0.422,5.801-0.9,9.251-1.376c19.732-2.748,42.174-5.466,60.206-7.649
					c9.916-1.201,18.48-2.237,23.999-2.969c2.175-0.288,4.262-0.442,6.281-0.591c4.962-0.366,9.248-0.681,13.448-2.788
					c6.472-3.244,11.651-10.645,16.792-23.996c7.858-20.462,20.119-27.507,33.1-34.965c1.035-0.595,2.076-1.193,3.121-1.802
					c1.223-0.72,2.354-1.418,3.447-2.128c0.376-0.245,0.771-0.493,1.173-0.745c0.558-0.349,1.135-0.711,1.682-1.086
					c0.208-0.148,3.797-2.697,9.093-6.925c10.55-8.519,25.333-22.219,35.776-39.051l1.039-1.458c0.209-0.262,1.019-1.29,1.992-2.666
					c0.216-0.317,2.421-3.522,2.421-3.522c0.792-1.303,5.095-9.37,5.63-10.813l0.014-0.037c0.763-1.985,1.618-4.358,2.178-6.911
					l0.659-2.424c0.395-1.873,0.643-3.843,0.863-5.738c0.13-1.409,0.231-2.777,0.298-4.069v-0.02c0-0.968-0.032-1.926-0.063-2.853
					c-0.009-0.277-0.019-0.553-0.026-0.828l-0.39-2.194c-0.04-0.229-0.084-0.468-0.128-0.707c-0.113-0.615-0.229-1.249-0.303-1.771
					c-0.258-1.478-0.575-2.808-0.942-3.953l-0.147-0.644c-0.517-1.908-1.303-3.674-2.064-5.385c-0.165-0.37-0.327-0.735-0.483-1.094
					l-0.599-1.101c-1.034-1.904-2.102-3.873-3.378-5.56l-1.505-2.371c-0.7-0.896-1.422-1.722-2.131-2.533l-0.33-0.378l-0.159-0.149
					l-0.161-0.203c-0.951-1.227-2.001-2.235-2.927-3.126c-0.285-0.274-0.555-0.534-0.804-0.781l-0.044-0.045
					c-0.814-0.842-1.583-1.513-2.279-2.106h-0.057l-0.846-0.679c-0.368-0.295-0.654-0.544-0.906-0.763
					c-0.161-0.14-0.313-0.273-0.477-0.406l-0.193-0.171c-0.147-0.124-0.27-0.247-0.373-0.355c-0.038-0.024-0.076-0.05-0.115-0.078
					l-0.215-0.153l-0.186-0.188c-11.291-11.371-27.624-21.892-48.554-31.276l-0.439-0.158c-1.243-0.448-2.796-1.067-4.594-1.783
					c-5.931-2.363-14.892-5.934-27.006-9.175c-19.559-5.232-40.708-7.886-62.86-7.886c-0.357,0-0.715,0.001-1.075,0.002h-3.409
					c-31.297,0.501-64.987,6.136-100.185,16.761c-46.226,13.955-83.544,28.092-114.085,43.22l-3.104,1.538l-1.168-3.262
					c-0.896-2.501-1.935-5.205-3.908-8.327c-2.706-4.279-4.854-7.704-5.893-9.365c-0.464-0.74-0.892-1.433-1.259-2.026
					c-0.241-0.39-0.456-0.737-0.635-1.024c-0.203-0.324-0.348-0.553-0.459-0.727c-0.096,0-0.2,0.001-0.32,0.004
					c-0.265,0.006-0.576,0.021-0.934,0.038c-0.417,0.019-0.892,0.042-1.433,0.06c-1.786,0.086-4.707,0.246-8.519,0.521
					c-4.847,0.343-14.941,1.085-28.13,2.203l-24.487,2.103c-10.121,0.857-17.565,4.936-20.965,11.486
					c-3.364,6.481-2.3,14.94,2.919,23.208c5.706,9.032,11.028,17.256,14.984,23.157c2.015,3.006,3.689,5.348,4.773,6.848
					c0.244,0.336,0.458,0.65,0.653,0.937c0.204,0.299,0.38,0.558,0.511,0.721l1.836,2.283c0,0-9.998,9.192-13.852,12.906
					l17.462,18.521l-18.536,2.846l-2.609,0.437c-2.439,0.468-4.036,2.699-3.636,5.078c0.379,2.183,2.282,3.841,4.426,3.841
					c0.244,0,0.492-0.021,0.736-0.063l21.354-3.688l-6.383,10.801l1.615,0.815l5.203-9.463l2.106,0.248
					c3.203,0.377,6.458,0.776,9.606,1.162c12.396,1.52,25.214,3.091,37.888,3.655c6.297,0.285,13.057,0.418,21.275,0.418
					c5.371,0,10.829-0.056,16.108-0.111c5.269-0.055,10.718-0.111,16.071-0.111c6.019,0,11.281,0.073,16.087,0.223
					c7.645,0.229,15.579,0.344,23.577,0.344c41.296,0,82.76-3.155,114.27-5.905c41.276-3.609,84.973-12.652,129.878-26.879
					c23.714-7.538,45.939-22.676,56.77-34.549l5.516-5.707c0,0,0.874,9.407,0.279,13.605
					C678.485,586.192,676.798,593.417,676.798,593.417z M233.161,642.67c6.456,2.746,12.187,4.783,17.823,6.342
					c52.701,14.622,110.869,22.527,177.829,24.168c7.894,0.193,17.248,0.391,26.773,0.391c19.582,0,35.442-0.851,49.912-2.679
					c25.999-3.252,51.585-11.507,73.184-17.946c38.266-11.315,76.602-34.319,86.707-49.681c5.697-8.661,8.5-18.526,8.726-22.855
					c-5.862,5.411-15.678,14.58-22.483,19.567c-9.349,6.851-22.378,11.43-33.301,14.902
					c-45.338,14.364-89.482,23.497-131.207,27.144c-60.224,5.254-92.989,5.928-114.807,5.928c-8.059,0-16.055-0.117-23.766-0.347
					c-4.744-0.148-9.943-0.22-15.898-0.22c-5.321,0-10.753,0.056-16.007,0.11c-5.294,0.055-10.769,0.111-16.171,0.111
					c-8.313,0-15.161-0.135-21.551-0.424c-12.911-0.574-25.849-2.161-38.362-3.695c-2.416-0.296-4.896-0.6-7.363-0.895
					C233.186,642.618,233.174,642.644,233.161,642.67z M442.803,726.632c-5.678,0-10.126-4.401-10.126-10.021
					c0-5.678,4.448-10.126,10.126-10.126c5.584,0,10.126,4.543,10.126,10.126C452.929,722.231,448.482,726.632,442.803,726.632z
					 M442.803,712.654c-2.219,0-3.958,1.739-3.958,3.958c0,2.196,1.702,3.852,3.958,3.852c2.219,0,3.958-1.692,3.958-3.852
					C446.761,714.429,444.986,712.654,442.803,712.654z M496.828,722.113c-5.526,0-10.021-4.543-10.021-10.126
					c0-5.678,4.401-10.126,10.021-10.126c5.678,0,10.126,4.448,10.126,10.126C506.954,717.57,502.412,722.113,496.828,722.113z
					 M496.828,708.029c-2.196,0-3.852,1.702-3.852,3.958c0,2.219,1.692,3.958,3.852,3.958c2.219,0,3.958-1.739,3.958-3.958
					C500.786,709.731,499.085,708.029,496.828,708.029z M550.959,717.594c-5.678,0-10.126-4.448-10.126-10.126
					c0-5.678,4.448-10.126,10.126-10.126c5.619,0,10.021,4.448,10.021,10.126C560.979,713.146,556.578,717.594,550.959,717.594z
					 M550.959,703.51c-2.219,0-3.958,1.739-3.958,3.958c0,2.256,1.702,3.958,3.958,3.958c2.196,0,3.852-1.702,3.852-3.958
					C554.811,705.211,553.155,703.51,550.959,703.51z"/>
				<path fill="#010101" stroke="#000000" stroke-miterlimit="10" d="M437.505,745.931c-2.786,0-5.157-0.322-7.462-1.014
					c-8.078-2.425-13.633-8.972-24.445-22.366c-6.041-7.535-10.473-12.699-14.37-16.742c-11.674-1.3-25.167-3.545-40.105-6.673
					c-11.901-2.492-24.733-5.545-38.143-9.074c2.633,5.023,2.997,10.39,1.023,15.123c-1.79,4.309-3.467,8.309-4.814,11.524
					l-2.966,7.085c-0.251,0.598-0.449,1.053-0.545,1.27c-0.06,0.136-0.141,0.321-0.247,0.521l-0.008,0.033
					c-0.034,0.071-0.24,0.445-0.444,0.767c-0.196,0.335-0.461,0.656-0.787,0.954c-0.359,0.44-0.774,0.759-1.264,0.974
					c-0.306,0.139-0.622,0.235-0.967,0.293c-0.114,0.038-0.233,0.071-0.357,0.099l-0.227,0.042
					c-0.225,0.033-0.456,0.068-0.749,0.102c-0.555,0.091-1.221,0.177-2.064,0.285l-0.43,0.055c-1.402,0.162-3.168,0.328-5.214,0.519
					l-0.063,0.006c-1.051,0.098-2.187,0.205-3.399,0.323l-3.827,0.373c-6.746,0.661-15.142,1.483-24.272,2.256l-24.38,2.102
					c-1.314,0.112-2.627,0.169-3.904,0.169c-10.608,0-19.246-3.834-24.323-10.795c-5.627-7.716-6.142-18.669-1.412-30.052
					l0.026-0.062l1.563-3.543c3.795-9.123,7.582-17.243,10.949-23.482c1.192-2.209,2.42-4.29,3.65-6.186
					c-3.189-1.388-5.823-2.601-8.05-3.707l-2.65-1.289l-3.508-1.663l2.969-4.854l4.351-7.041l-7.777,1.343
					c-0.592,0.102-1.194,0.153-1.788,0.153c-5.205,0-9.639-3.786-10.544-9.002c-0.402-2.385-0.008-4.753,1.138-6.847
					c1.112-2.033,2.903-3.675,5.041-4.622l0.01-0.003l11.457-1.78l-13.41-14.588l0.026-0.026l3.472-3.469
					c3.711-3.611,7.554-7.092,11.155-10.318c-1.589-2.208-3.07-4.339-4.528-6.515c-3.991-5.953-9.345-14.227-15.076-23.299
					c-6.427-10.183-7.586-20.892-3.18-29.382c4.417-8.508,13.631-13.768,25.946-14.811l24.487-2.102
					c13.226-1.121,23.355-1.865,28.215-2.21c3.87-0.279,6.861-0.443,8.69-0.531l0.048-0.002c0.531-0.017,0.993-0.039,1.364-0.057
					l0.025-0.001c0.404-0.019,0.753-0.035,1.055-0.042c0.319-0.007,0.557-0.007,0.796-0.003c0.246-0.014,0.479-0.01,0.698,0.012
					c0.358,0.026,0.741,0.111,1.17,0.258c0.291,0.099,0.56,0.235,0.823,0.414c0.19,0.089,0.464,0.225,0.658,0.357l0.477,0.328
					l0.332,0.475c0.012,0.017,0.035,0.05,0.062,0.087l0.901,0.824l0.004,0.457c0.078,0.123,0.167,0.265,0.27,0.43
					c0.163,0.262,0.354,0.571,0.568,0.915l0.082,0.132c0.361,0.584,0.783,1.266,1.241,1.997c1.043,1.666,3.193,5.096,5.879,9.343
					c1.254,1.986,2.321,4.045,3.258,6.294c30.279-14.718,66.906-28.487,111.966-42.089c36.734-11.088,71.897-16.827,104.515-17.055
					l3.375-0.024l-0.004,0.055c22.174,0.112,43.383,2.834,63.04,8.093c12.468,3.336,21.634,6.988,27.699,9.405
					c1.516,0.604,2.825,1.125,3.896,1.525l0.224,0.003l0.599,0.267c21.685,9.665,38.721,20.592,50.637,32.476
					c0.019,0.011,0.045,0.028,0.072,0.046l0.188,0.136c0.288,0.227,0.496,0.458,0.633,0.611l0.134,0.126
					c0.138,0.113,0.279,0.234,0.456,0.389l0.991,0.748c0.137,0.118,0.28,0.24,0.431,0.368l0.092,0.078
					c0.837,0.708,1.878,1.59,3.024,2.773c0.214,0.213,0.448,0.437,0.709,0.688c0.975,0.937,2.187,2.102,3.362,3.583l0.029,0.026
					l0.558,0.64c1.309,1.498,2.791,3.194,4.163,5.351l1.39,2.185l-0.044,0.041c0.666,1.067,1.27,2.149,1.774,3.069l1.357,2.549
					c0.148,0.338,0.299,0.678,0.453,1.024l0.005,0.011c0.871,1.96,1.858,4.181,2.5,6.742l0.093,0.383
					c0.382,1.273,0.713,2.692,0.983,4.217l0.909,5.109c0.011,0.431,0.026,0.858,0.04,1.289l0.002,0.047
					c0.033,0.984,0.066,1.992,0.066,3.059l-0.004,0.258c-0.073,1.414-0.182,2.907-0.324,4.44l-0.007,0.07
					c-0.315,2.722-0.687,5.614-1.459,8.409c-0.023,0.26-0.408,1.438-0.424,1.488c-0.635,2.547-1.462,4.82-2.187,6.707
					c-0.667,1.801-1.443,3.288-2.127,4.601c-0.336,0.646-0.653,1.254-0.893,1.785l-0.417,0.713c-0.991,1.911-1.911,3.462-2.68,4.727
					c-0.735,1.289-1.502,2.317-2.062,3.068l-0.012,0.016c-0.223,0.299-0.416,0.558-0.558,0.766l-0.032,0.047
					c-0.79,1.118-1.471,2.01-1.805,2.442l-1.911,2.87h-0.056c-10.861,16.939-25.698,30.635-36.233,39.142
					c-5.685,4.538-9.375,7.139-9.412,7.165l-0.028,0.019c-0.655,0.451-1.287,0.847-1.9,1.231l-0.055,0.034
					c-0.365,0.229-0.709,0.444-1.051,0.668c-1.177,0.764-2.387,1.511-3.699,2.283c-1.026,0.598-2,1.158-3.166,1.828
					c-12.52,7.193-23.331,13.405-30.399,31.811c-5.739,14.904-11.846,23.329-19.804,27.317c-5.3,2.658-10.625,3.05-15.774,3.429
					c-1.927,0.142-3.92,0.289-5.921,0.554c-5.543,0.735-14.102,1.771-24.012,2.971l-0.118,0.015
					c-17.99,2.178-40.38,4.889-60.039,7.627c-3.407,0.469-6.459,0.944-9.152,1.362C446.331,745.2,441.631,745.931,437.505,745.931z
					 M312.831,689.941l0.085,0.022c21.155,5.571,51.918,12.829,78.335,15.77l0.014,0.002l0.01,0.01
					c3.901,4.046,8.338,9.214,14.385,16.757c10.801,13.382,16.35,19.922,24.407,22.34c2.297,0.69,4.661,1.011,7.439,1.011
					c4.119,0,8.817-0.73,14.764-1.655c2.693-0.418,5.746-0.892,9.153-1.362c19.659-2.738,42.049-5.449,60.04-7.627l0.118-0.015
					c9.91-1.2,18.468-2.236,24.011-2.971c2.003-0.265,3.997-0.412,5.926-0.554c5.142-0.379,10.459-0.77,15.745-3.421
					c7.938-3.979,14.035-12.391,19.766-27.276c7.078-18.432,17.9-24.65,30.431-31.85c1.167-0.67,2.14-1.23,3.166-1.828
					c1.311-0.771,2.52-1.517,3.695-2.281c0.342-0.224,0.688-0.44,1.052-0.669l0.055-0.034c0.611-0.383,1.244-0.779,1.896-1.229
					l0.028-0.019c0.036-0.026,3.726-2.625,9.408-7.161c10.534-8.506,25.371-22.202,36.228-39.141l0.011-0.018h0.057l1.89-2.838
					c0.337-0.434,1.016-1.325,1.805-2.441l0.031-0.046c0.143-0.21,0.336-0.469,0.559-0.769l0.012-0.016
					c0.559-0.749,1.325-1.775,2.058-3.061c0.769-1.266,1.688-2.815,2.679-4.726l0.416-0.711c0.239-0.529,0.556-1.138,0.892-1.782
					c0.684-1.313,1.458-2.799,2.124-4.595c0.725-1.885,1.55-4.155,2.185-6.701c0.005-0.015,0.399-1.223,0.423-1.481
					c0.772-2.796,1.143-5.684,1.458-8.403l0.007-0.069c0.142-1.532,0.251-3.024,0.324-4.435l0.004-0.256
					c0-1.066-0.033-2.073-0.066-3.047l-0.002-0.056c-0.014-0.43-0.028-0.857-0.039-1.283l-0.909-5.103
					c-0.269-1.522-0.599-2.938-0.981-4.21l-0.093-0.385c-0.641-2.554-1.626-4.773-2.496-6.729l-0.005-0.011
					c-0.154-0.346-0.305-0.686-0.452-1.021l-1.356-2.546c-0.507-0.926-1.117-2.018-1.789-3.092l-0.017-0.027l0.044-0.04l-1.355-2.13
					c-1.369-2.152-2.848-3.846-4.154-5.339l-0.557-0.639l-0.031-0.027c-1.177-1.481-2.387-2.644-3.359-3.579
					c-0.263-0.252-0.496-0.477-0.711-0.69c-1.144-1.181-2.183-2.061-3.019-2.768l-0.092-0.078c-0.151-0.128-0.295-0.25-0.43-0.366
					l-0.991-0.748c-0.179-0.156-0.32-0.276-0.458-0.391l-0.138-0.13c-0.138-0.153-0.343-0.381-0.624-0.603l-0.186-0.135
					c-0.025-0.017-0.05-0.033-0.075-0.049c-11.916-11.883-28.944-22.804-50.62-32.465l-0.592-0.263l-0.22-0.002
					c-1.073-0.4-2.385-0.922-3.904-1.528c-6.064-2.416-15.227-6.068-27.691-9.402c-19.662-5.26-40.879-7.982-63.062-8.091l-0.041,0
					l0.004-0.054l-3.292,0.023c-32.61,0.229-67.767,5.965-104.493,17.052c-45.075,13.607-81.709,27.379-111.991,42.103l-0.037,0.018
					l-0.016-0.038c-0.94-2.259-2.009-4.327-3.268-6.32c-2.685-4.247-4.836-7.676-5.879-9.343c-0.457-0.731-0.879-1.413-1.241-1.998
					l-0.082-0.132c-0.213-0.345-0.404-0.653-0.568-0.915c-0.105-0.169-0.196-0.313-0.276-0.439l-0.006-0.009l-0.004-0.445
					l-0.881-0.808c-0.032-0.043-0.056-0.076-0.068-0.094l-0.008-0.011l-0.32-0.458l-0.461-0.314c-0.19-0.13-0.46-0.264-0.653-0.354
					c-0.263-0.178-0.526-0.31-0.81-0.407c-0.423-0.145-0.799-0.228-1.152-0.254c-0.216-0.022-0.44-0.025-0.69-0.011
					c-0.244-0.005-0.478-0.005-0.795,0.003c-0.302,0.007-0.65,0.023-1.054,0.042l-0.025,0.001c-0.372,0.018-0.834,0.04-1.365,0.057
					l-0.048,0.002c-1.827,0.088-4.818,0.251-8.687,0.531c-4.86,0.344-14.988,1.088-28.214,2.209l-24.487,2.103
					c-12.288,1.041-21.481,6.286-25.885,14.77c-4.393,8.465-3.236,19.146,3.176,29.305c5.731,9.071,11.085,17.345,15.075,23.298
					c1.464,2.183,2.951,4.323,4.547,6.54l0.02,0.028l-0.026,0.023c-3.608,3.231-7.459,6.72-11.178,10.338l-3.445,3.443l13.458,14.64
					l-0.071,0.011l-11.524,1.79c-2.121,0.941-3.896,2.57-5,4.587c-1.137,2.078-1.528,4.429-1.129,6.797
					c0.898,5.179,5.301,8.938,10.468,8.938c0.59,0,1.187-0.051,1.775-0.152l7.946-1.372l-0.045,0.073l-4.396,7.114l-2.924,4.78
					l3.431,1.626l2.65,1.289c2.236,1.11,4.882,2.328,8.089,3.723l0.042,0.018l-0.025,0.038c-1.237,1.904-2.473,3.996-3.672,6.218
					c-3.366,6.236-7.151,14.354-10.946,23.476l-1.589,3.604c-4.719,11.357-4.208,22.283,1.403,29.977
					c5.062,6.94,13.678,10.763,24.261,10.763c1.274,0,2.585-0.057,3.897-0.169l24.38-2.102c9.13-0.773,17.525-1.595,24.272-2.255
					l3.827-0.373c1.212-0.118,2.347-0.224,3.399-0.323l0.063-0.006c2.045-0.191,3.811-0.356,5.212-0.519l0.429-0.055
					c0.843-0.108,1.509-0.194,2.063-0.285c0.293-0.035,0.525-0.069,0.749-0.102l0.014-0.002l0.209-0.039
					c0.121-0.027,0.238-0.059,0.354-0.098c0.343-0.059,0.653-0.153,0.954-0.289c0.48-0.21,0.885-0.523,1.24-0.957
					c0.324-0.296,0.584-0.611,0.778-0.941c0.18-0.284,0.36-0.607,0.422-0.726l-0.001,0l0.011-0.039
					c0.113-0.21,0.198-0.405,0.261-0.547c0.096-0.217,0.294-0.671,0.545-1.269l2.966-7.085c1.347-3.215,3.024-7.216,4.814-11.524
					c1.975-4.736,1.599-10.111-1.061-15.135L312.831,689.941z M437.505,739.763c-2.167,0-3.975-0.24-5.688-0.754
					c-6.039-1.813-10.668-7.013-21.412-20.324c-6.529-8.145-11.325-13.694-15.549-17.993l-0.764-0.778l-1.084-0.116
					c-29.168-3.129-64.021-11.68-88.123-18.302l-12.646-3.475l9.958,8.813c1.66,1.469,3.227,2.857,4.216,4.278
					c2.732,3.926,3.405,8.082,1.895,11.701c-1.801,4.335-3.468,8.314-4.808,11.511l-2.966,7.083
					c-0.276,0.659-0.479,1.12-0.553,1.287l-0.009,0.02l-0.288,0.038c-0.452,0.076-1.099,0.159-1.917,0.264l-0.361,0.046
					c-1.312,0.151-3.035,0.313-5.029,0.5l-0.102,0.01c-1.079,0.101-2.196,0.205-3.411,0.324l-3.861,0.377
					c-6.733,0.659-15.111,1.478-24.169,2.246l-24.383,2.102c-1.141,0.097-2.276,0.147-3.376,0.147
					c-8.586,0-15.454-2.934-19.34-8.261c-4.324-5.929-4.583-14.684-0.712-24.021l1.588-3.602c3.721-8.948,7.42-16.885,10.694-22.951
					c1.364-2.527,7.582-10.985,8.063-11.638l-3.675-1.548c-1.833-0.773-4.024-1.498-6.143-2.201
					c-2.196-0.728-4.271-1.415-5.616-2.053l-0.039-0.018l0.023-0.037l4.883-7.98l0.017,0.008l6.271-10.612l-21.272,3.674
					c-0.248,0.043-0.497,0.064-0.743,0.064c-2.162,0-4.08-1.665-4.463-3.873c-0.404-2.4,1.207-4.651,3.667-5.123l2.61-0.437
					l18.464-2.835l-17.438-18.495l0.027-0.026c3.713-3.578,13.249-12.352,13.826-12.882l-1.814-2.255
					c-0.13-0.162-0.303-0.415-0.503-0.709l-0.01-0.014c-0.21-0.309-0.418-0.613-0.653-0.936c-1.082-1.497-2.754-3.836-4.774-6.849
					c-3.961-5.908-9.282-14.132-14.985-23.158c-5.226-8.28-6.291-16.753-2.92-23.246c3.406-6.562,10.863-10.648,20.996-11.507
					l24.487-2.103c13.191-1.118,23.287-1.859,28.13-2.203c3.809-0.275,6.736-0.435,8.52-0.521c0.502-0.016,0.948-0.037,1.342-0.055
					l0.113-0.005c0.35-0.017,0.653-0.031,0.913-0.037c0.12-0.003,0.224-0.005,0.32-0.005h0.021l0.011,0.018
					c0.112,0.174,0.257,0.403,0.46,0.727c0.179,0.288,0.394,0.634,0.635,1.025l0.047,0.076c0.36,0.582,0.767,1.24,1.211,1.949
					c0.806,1.289,2.994,4.78,5.892,9.365c1.973,3.123,3.014,5.829,3.911,8.334l1.154,3.221l3.065-1.519
					c30.541-15.128,67.861-29.266,114.091-43.223c35.188-10.621,68.899-16.261,100.195-16.762h3.41
					c0.36-0.002,0.717-0.002,1.075-0.002c22.154,0,43.307,2.654,62.87,7.887c12.114,3.241,21.077,6.813,27.008,9.176
					c1.793,0.714,3.341,1.331,4.595,1.783l0.439,0.158c20.937,9.387,37.276,19.912,48.569,31.286l0.186,0.187l0.21,0.149
					c0.038,0.027,0.076,0.053,0.113,0.077c0.133,0.138,0.254,0.253,0.377,0.358l0.194,0.171c0.16,0.13,0.309,0.26,0.467,0.397
					l0.01,0.009c0.237,0.207,0.532,0.463,0.905,0.762l0.835,0.67h0.057l0.011,0.009c0.665,0.565,1.444,1.241,2.282,2.108
					l0.044,0.044c0.245,0.244,0.509,0.498,0.803,0.781c0.929,0.893,1.979,1.903,2.93,3.13l0.161,0.203l0.155,0.146l0.332,0.381
					c0.703,0.804,1.429,1.636,2.132,2.534l1.508,2.374c1.274,1.685,2.342,3.653,3.375,5.556l0.603,1.107
					c0.141,0.324,0.286,0.649,0.432,0.978l0.052,0.118c0.762,1.713,1.548,3.48,2.065,5.391l0.147,0.645
					c0.366,1.144,0.684,2.476,0.942,3.955c0.073,0.515,0.187,1.14,0.298,1.744l0.005,0.027c0.044,0.239,0.088,0.478,0.128,0.707
					l0.39,2.194c0.006,0.211,0.013,0.417,0.02,0.624l0.007,0.221c0.031,0.923,0.062,1.878,0.062,2.841v0.02
					c-0.068,1.3-0.168,2.669-0.299,4.073c-0.205,1.769-0.457,3.816-0.863,5.742l-0.66,2.426c-0.561,2.558-1.417,4.931-2.18,6.915
					l-0.014,0.037c-0.543,1.468-4.906,9.624-5.633,10.82c-0.023,0.034-2.208,3.21-2.422,3.523c-0.968,1.368-1.771,2.388-1.994,2.668
					l-1.038,1.457c-10.444,16.834-25.224,30.532-35.783,39.059c-5.326,4.251-8.943,6.819-9.094,6.926
					c-0.562,0.386-1.158,0.758-1.683,1.087c-0.362,0.226-0.782,0.49-1.173,0.745c-1.094,0.71-2.222,1.407-3.449,2.128
					c-0.959,0.559-1.929,1.117-2.867,1.656l-0.254,0.146c-12.974,7.455-25.229,14.495-33.083,34.945
					c-5.145,13.361-10.329,20.768-16.811,24.017c-4.207,2.109-8.495,2.425-13.461,2.791c-2.015,0.148-4.098,0.302-6.28,0.591
					c-5.454,0.724-13.886,1.745-23.649,2.927l-0.35,0.043c-18.026,2.182-40.459,4.898-60.205,7.649
					c-3.468,0.478-6.54,0.955-9.25,1.376C445.417,739.1,441.143,739.763,437.505,739.763z M291.94,677.859l12.967,3.563
					c24.099,6.621,58.948,15.171,88.111,18.3l1.111,0.119l0.01,0.01l0.774,0.787c4.227,4.3,9.024,9.851,15.555,17.999
					c10.733,13.297,15.356,18.492,21.375,20.298c1.706,0.513,3.506,0.751,5.666,0.751c3.631,0,7.903-0.662,13.815-1.58
					c2.715-0.421,5.787-0.898,9.256-1.377c19.747-2.75,42.181-5.466,60.207-7.649l0.35-0.043c9.763-1.182,18.194-2.204,23.648-2.927
					c2.185-0.289,4.268-0.443,6.284-0.591c4.958-0.365,9.24-0.681,13.434-2.783c6.463-3.24,11.636-10.634,16.774-23.976
					c7.863-20.475,20.13-27.523,33.116-34.984l0.254-0.146c0.938-0.539,1.908-1.096,2.866-1.656
					c1.225-0.721,2.352-1.417,3.445-2.127c0.391-0.255,0.811-0.519,1.174-0.746c0.525-0.328,1.12-0.7,1.68-1.085
					c0.151-0.107,3.767-2.673,9.09-6.923c10.555-8.523,25.328-22.214,35.768-39.041l1.041-1.46c0.224-0.281,1.026-1.3,1.992-2.666
					c0.213-0.313,2.398-3.489,2.42-3.521c0.725-1.193,5.083-9.34,5.625-10.805l0.014-0.037c0.762-1.981,1.616-4.351,2.177-6.906
					l0.66-2.425c0.405-1.92,0.657-3.965,0.861-5.732c0.13-1.401,0.23-2.77,0.298-4.067v-0.018c0-0.963-0.032-1.917-0.062-2.839
					l-0.007-0.221c-0.007-0.207-0.014-0.413-0.019-0.619l-0.389-2.189c-0.04-0.229-0.084-0.467-0.128-0.707l-0.005-0.026
					c-0.11-0.605-0.225-1.231-0.298-1.746c-0.258-1.475-0.574-2.803-0.94-3.946l-0.148-0.647c-0.516-1.903-1.301-3.668-2.06-5.375
					l-0.054-0.122c-0.147-0.33-0.291-0.655-0.431-0.976l-0.598-1.098c-1.035-1.907-2.102-3.872-3.374-5.555l-1.507-2.373
					c-0.699-0.894-1.425-1.725-2.127-2.528l-0.33-0.378l-0.156-0.147l-0.165-0.207c-0.949-1.223-1.996-2.23-2.92-3.119
					c-0.298-0.286-0.562-0.54-0.807-0.785l-0.045-0.045c-0.831-0.86-1.605-1.532-2.266-2.094h-0.056l-0.856-0.687
					c-0.374-0.3-0.67-0.558-0.907-0.764l-0.01-0.009c-0.157-0.137-0.306-0.266-0.466-0.396l-0.194-0.172
					c-0.125-0.106-0.248-0.223-0.376-0.358c-0.031-0.019-0.07-0.045-0.109-0.073l-0.215-0.154l-0.191-0.192
					c-11.285-11.366-27.618-21.886-48.542-31.268l-0.436-0.157c-1.255-0.452-2.803-1.069-4.595-1.783
					c-5.931-2.363-14.891-5.934-27.001-9.174c-19.557-5.232-40.703-7.885-62.85-7.885c-0.357,0-0.715,0.001-1.074,0.002h-3.41
					c-31.289,0.501-64.993,6.139-100.174,16.759c-46.226,13.955-83.541,28.091-114.079,43.218l-3.143,1.557l-0.014-0.041
					l-1.168-3.262c-0.896-2.5-1.935-5.202-3.904-8.319c-2.899-4.585-5.087-8.077-5.893-9.365c-0.444-0.709-0.852-1.368-1.212-1.95
					l-0.047-0.076c-0.241-0.391-0.456-0.737-0.635-1.024c-0.196-0.313-0.338-0.537-0.448-0.709c-0.09,0-0.187,0.002-0.298,0.005
					c-0.259,0.006-0.561,0.02-0.911,0.037l-0.113,0.006c-0.394,0.018-0.84,0.039-1.343,0.055c-1.783,0.086-4.71,0.246-8.518,0.521
					c-4.843,0.343-14.938,1.085-28.129,2.203l-24.487,2.103c-10.106,0.856-17.541,4.928-20.934,11.466
					c-3.357,6.468-2.294,14.913,2.917,23.17c5.702,9.025,11.023,17.249,14.983,23.156c2.019,3.012,3.691,5.35,4.773,6.847
					c0.235,0.325,0.443,0.629,0.654,0.938l0.01,0.014c0.199,0.292,0.371,0.545,0.5,0.704l1.859,2.311l-0.027,0.024
					c-0.1,0.092-9.995,9.191-13.824,12.879l17.486,18.547l-18.609,2.858l-2.609,0.437c-2.417,0.464-4.001,2.676-3.604,5.034
					c0.377,2.171,2.263,3.809,4.388,3.809c0.241,0,0.487-0.021,0.73-0.063l21.436-3.703l-0.042,0.072l-6.312,10.68l1.533,0.794
					l5.16-9.383l2.132,0.251c3.159,0.371,6.37,0.765,9.476,1.146l0.13,0.016c12.398,1.52,25.214,3.091,37.885,3.655
					c6.292,0.285,13.052,0.418,21.273,0.418c5.408,0,10.848-0.057,16.108-0.111c5.251-0.054,10.682-0.11,16.071-0.11
					c6.019,0,11.282,0.073,16.088,0.223c7.646,0.229,15.579,0.344,23.576,0.344c41.296,0,82.758-3.155,114.267-5.905
					c41.273-3.608,84.967-12.651,129.87-26.877c11.023-3.504,22.506-8.914,33.207-15.645c9.548-6.006,17.91-12.716,23.546-18.894
					l5.575-5.768l0.007,0.084c0.009,0.094,0.867,9.46,0.279,13.614c-0.539,3.801-2.217,10.999-2.234,11.071
					c-1.356,3.862-7.406,13.183-8.198,14.135c-7.921,9.52-20.384,19.761-35.093,28.835c-16.366,10.096-34.726,18.304-53.094,23.735
					c-21.841,6.511-47.735,13.613-74.177,16.921c-14.733,1.861-30.838,2.727-50.686,2.727c-9.588,0-18.991-0.199-26.926-0.392
					c-67.479-1.654-126.139-9.633-179.334-24.392c-6.848-1.894-13.799-4.448-21.875-8.038l-3.001-1.555l-0.038,0.069l-0.033-0.017
					l-1.602-0.808l-4.771,7.798c1.342,0.631,3.396,1.311,5.569,2.031c2.12,0.703,4.312,1.429,6.149,2.203l3.765,1.586l-0.029,0.039
					c-0.067,0.09-6.676,9.058-8.086,11.669c-3.273,6.064-6.97,13.998-10.691,22.944l-0.026,0.061l-1.562,3.542
					c-3.861,9.31-3.605,18.038,0.703,23.945c3.871,5.307,10.717,8.229,19.277,8.229c1.098,0,2.231-0.049,3.369-0.147l24.383-2.102
					c9.057-0.768,17.436-1.587,24.168-2.246l0.029-0.003l3.832-0.374c1.216-0.119,2.332-0.223,3.412-0.324l0.102-0.01
					c1.994-0.187,3.716-0.348,5.027-0.499l0.36-0.046c0.817-0.105,1.463-0.188,1.915-0.264l0.248-0.033
					c0.081-0.182,0.278-0.631,0.544-1.265l2.966-7.083c1.34-3.197,3.007-7.176,4.808-11.511c1.499-3.595,0.829-7.724-1.887-11.628
					c-0.984-1.414-2.548-2.798-4.204-4.264l-0.008-0.007L291.94,677.859z M224.489,645.333l2.997,1.553
					c8.07,3.588,15.018,6.141,21.862,8.034c53.188,14.758,111.843,22.735,179.315,24.389c7.934,0.194,17.336,0.392,26.924,0.392
					c19.844,0,35.947-0.867,50.676-2.727c26.437-3.307,52.326-10.408,74.165-16.918c18.362-5.429,36.714-13.634,53.076-23.727
					c14.703-9.07,27.159-19.304,35.075-28.819c0.79-0.95,6.831-10.256,8.183-14.107c0.016-0.068,1.692-7.264,2.231-11.061
					c0.558-3.936-0.187-12.568-0.271-13.513l-5.457,5.647c-5.639,6.182-14.007,12.897-23.561,18.906
					c-10.707,6.735-22.196,12.147-33.225,15.653c-44.908,14.228-88.608,23.272-129.887,26.88
					c-31.51,2.749-72.974,5.905-114.273,5.905c-7.999,0-15.931-0.116-23.578-0.344c-4.805-0.15-10.067-0.223-16.085-0.223
					c-5.389,0-10.819,0.056-16.071,0.11c-5.26,0.055-10.7,0.111-16.109,0.111c-8.222,0-14.983-0.133-21.276-0.418
					c-12.674-0.564-25.491-2.135-37.886-3.655l-0.134-0.017c-3.105-0.381-6.316-0.774-9.475-1.146l-2.08-0.245L224.489,645.333z
					 M222.837,644.588l1.545,0.779l0.001-0.002l-1.536-0.796L222.837,644.588z M442.803,726.671c-5.7,0-10.165-4.419-10.165-10.06
					c0-5.7,4.465-10.165,10.165-10.165c5.605,0,10.165,4.56,10.165,10.165C452.968,722.252,448.503,726.671,442.803,726.671z
					 M442.803,706.524c-5.657,0-10.088,4.431-10.088,10.088c0,5.598,4.431,9.982,10.088,9.982c5.656,0,10.088-4.385,10.088-9.982
					C452.89,711.049,448.366,706.524,442.803,706.524z M496.828,722.152c-5.547,0-10.059-4.56-10.059-10.165
					c0-5.7,4.419-10.165,10.059-10.165c5.7,0,10.165,4.465,10.165,10.165C506.993,717.592,502.433,722.152,496.828,722.152z
					 M496.828,701.899c-5.598,0-9.982,4.431-9.982,10.088c0,5.562,4.478,10.088,9.982,10.088c5.562,0,10.088-4.525,10.088-10.088
					C506.916,706.33,502.484,701.899,496.828,701.899z M442.803,720.503c-2.278,0-3.996-1.673-3.996-3.891
					c0-2.241,1.755-3.997,3.996-3.997c2.204,0,3.996,1.793,3.996,3.997C446.799,718.793,445.044,720.503,442.803,720.503z
					 M442.803,712.692c-2.198,0-3.919,1.722-3.919,3.919c0,2.174,1.685,3.814,3.919,3.814c2.198,0,3.919-1.675,3.919-3.814
					C446.722,714.451,444.964,712.692,442.803,712.692z M550.959,717.632c-5.7,0-10.165-4.465-10.165-10.165
					c0-5.7,4.465-10.165,10.165-10.165c5.641,0,10.059,4.465,10.059,10.165C561.018,713.167,556.599,717.632,550.959,717.632z
					 M550.959,697.38c-5.657,0-10.088,4.431-10.088,10.088c0,5.657,4.431,10.088,10.088,10.088c5.598,0,9.982-4.431,9.982-10.088
					C560.941,701.811,556.556,697.38,550.959,697.38z M496.828,715.983c-2.182,0-3.891-1.755-3.891-3.996
					c0-2.278,1.673-3.997,3.891-3.997c2.278,0,3.996,1.718,3.996,3.997C500.824,714.228,499.069,715.983,496.828,715.983z
					 M496.828,708.068c-2.174,0-3.814,1.685-3.814,3.919c0,2.198,1.675,3.919,3.814,3.919c2.198,0,3.919-1.722,3.919-3.919
					C500.747,709.752,499.062,708.068,496.828,708.068z M550.959,711.464c-2.278,0-3.996-1.718-3.996-3.997
					c0-2.241,1.755-3.997,3.996-3.997c2.218,0,3.891,1.718,3.891,3.997C554.85,709.746,553.177,711.464,550.959,711.464z
					 M550.959,703.548c-2.198,0-3.919,1.722-3.919,3.919c0,2.235,1.685,3.919,3.919,3.919c2.174,0,3.814-1.685,3.814-3.919
					S553.133,703.548,550.959,703.548z M455.587,673.609c-9.514,0-18.873-0.197-26.774-0.391
					c-66.961-1.641-125.133-9.547-177.838-24.169c-5.688-1.574-11.354-3.589-17.828-6.343l-0.037-0.016l0.068-0.14l0.027,0.003
					c2.543,0.304,5.104,0.618,7.363,0.895l0.018,0.002c12.506,1.533,25.438,3.118,38.341,3.692
					c6.386,0.289,13.233,0.424,21.55,0.424c5.38,0,10.831-0.056,16.104-0.11l0.068-0.001c5.241-0.055,10.662-0.11,16.007-0.11
					c5.952,0,11.153,0.072,15.899,0.22c7.712,0.23,15.708,0.347,23.765,0.347c21.816,0,54.582-0.674,114.803-5.928
					c41.721-3.647,85.863-12.779,131.199-27.143c11.319-3.598,24.126-8.181,33.29-14.897c6.34-4.646,15.299-12.928,21.229-18.408
					c0.434-0.401,0.852-0.787,1.251-1.156l0.07-0.064l-0.005,0.095c-0.226,4.33-3.085,14.289-8.732,22.874
					c-4.942,7.512-16.899,17.124-32.806,26.37c-16.669,9.689-35.818,17.973-53.922,23.327c-2.314,0.69-4.627,1.386-7.076,2.124
					c-20.108,6.056-42.899,12.92-66.115,15.824C491.032,672.759,475.171,673.609,455.587,673.609z M233.213,642.651
					c6.456,2.745,12.107,4.755,17.781,6.325c52.7,14.621,110.865,22.526,177.82,24.166c7.9,0.193,17.259,0.391,26.772,0.391
					c19.581,0,35.439-0.851,49.907-2.679c23.21-2.903,45.997-9.766,66.102-15.821c2.449-0.737,4.762-1.434,7.076-2.124
					c18.098-5.352,37.242-13.633,53.905-23.319c15.898-9.241,27.845-18.844,32.781-26.346c5.599-8.511,8.452-18.371,8.714-22.741
					c-0.378,0.349-0.773,0.713-1.181,1.091c-5.931,5.481-14.892,13.765-21.235,18.413c-9.173,6.722-21.987,11.308-33.313,14.908
					c-45.341,14.365-89.488,23.498-131.216,27.146c-60.225,5.254-92.992,5.928-114.81,5.928c-8.058,0-16.055-0.117-23.767-0.347
					c-4.746-0.148-9.946-0.22-15.897-0.22c-5.345,0-10.765,0.056-16.006,0.11l-0.068,0.001c-5.272,0.055-10.724,0.11-16.105,0.11
					c-8.318,0-15.166-0.135-21.553-0.424c-12.906-0.574-25.839-2.16-38.347-3.693l-0.018-0.002
					c-2.251-0.276-4.801-0.589-7.335-0.892L233.213,642.651z"/>
			</g>
		</g>
	</g>
	<g>
		<path fill="#010101" stroke="#000000" stroke-miterlimit="10" d="M33.547,253.128c6.908-5.005,12.971-8.87,19.079-12.164
			c47.455-25.625,101.602-47.023,165.533-65.414c7.515-2.162,16.43-4.698,25.569-7.118c18.911-5.008,34.448-8.355,48.89-10.533
			c25.92-3.937,52.148-4.596,74.38-4.723c40.022-0.306,70.681,4.425,94.711,18.154c6.615,3.78,9.952,5.865,15.471,12.252
			c3.552,4.111,11.247,18.679,11.247,18.679l-10.048-4.409l-4.003-1.537c-17.7-8.725-37.614-9.73-61.861-9.98
			c-45.904-0.435-89.522,3.113-129.642,10.543c-30.627,5.677-70.827,13.529-110.177,23.949c-7.621,2.018-15.156,4.116-22.391,6.234
			c-4.546,1.336-9.544,2.724-15.279,4.243c-5.1,1.351-10.305,2.679-15.338,3.963c-5.042,1.287-10.255,2.617-15.373,3.972
			c-7.831,2.073-14.242,3.889-20.181,5.713c-11.953,3.664-23.823,8.198-35.302,12.582c-2.915,1.113-5.929,2.265-8.899,3.384
			l-1.953,0.736l-7.03-6.512 M39.956,255.261c2.286-0.867,4.582-1.744,6.82-2.598c11.587-4.426,23.569-9.002,35.745-12.734
			c6.026-1.852,12.521-3.691,20.443-5.788c5.148-1.363,10.377-2.698,15.434-3.988c5.018-1.281,10.207-2.605,15.277-3.947
			c5.674-1.502,10.612-2.874,15.101-4.193c7.297-2.136,14.89-4.25,22.57-6.284c20.789-5.505,52.158-13.215,110.694-24.065
			c40.558-7.512,84.621-11.098,130.967-10.659c11.169,0.115,23.034,0.375,34.522,2.135c9.294,1.424,25.289,6.919,32.473,11.563
			c-1.941-4.129-11.297-12.868-21.597-18.717c-5.447-3.093-17.457-9.777-42.703-13.687c-15.165-2.349-32.262-3.647-49.08-3.788
			c-13.677-0.115-47.909,0.775-73.395,4.645c-14.188,2.14-29.487,5.437-48.146,10.378c-9.076,2.403-17.946,4.927-25.426,7.078
			c-63.445,18.252-117.14,39.465-164.156,64.853c-5.029,2.711-10.045,5.841-15.595,9.741
			C39.92,255.224,39.938,255.243,39.956,255.261z"/>
		<path fill="#010101" stroke="#000000" stroke-miterlimit="10" d="M37.972,261.701l-0.018-0.016l-7.03-6.512l0.052-0.057
			l7.013,6.496l1.93-0.727c2.94-1.108,5.925-2.248,8.811-3.351l0.099-0.038c11.476-4.383,23.342-8.915,35.292-12.578
			c5.94-1.825,12.353-3.641,20.182-5.714c5.135-1.36,10.34-2.688,15.373-3.972l0.088-0.023c5.004-1.277,10.179-2.598,15.249-3.941
			c5.735-1.518,10.732-2.906,15.279-4.243c7.229-2.116,14.763-4.214,22.392-6.234c39.353-10.42,79.554-18.272,110.18-23.949
			c37.93-7.025,78.989-10.579,122.149-10.579c2.494,0,4.993,0.012,7.5,0.035c12.938,0.134,23.567,0.493,33.39,1.813
			c11.169,1.5,20.221,4.097,28.487,8.171l4,1.536l9.948,4.365c-0.682-1.284-7.833-14.689-11.19-18.574
			c-5.573-6.449-8.95-8.524-15.461-12.244c-21.92-12.524-50.138-18.163-91.161-18.163c-1.166,0-2.343,0.005-3.531,0.014
			c-22.237,0.127-48.462,0.787-74.375,4.723c-14.44,2.178-29.974,5.524-48.885,10.532c-9.135,2.419-18.051,4.955-25.569,7.117
			c-63.928,18.391-118.071,39.787-165.525,65.411c-6.111,3.295-12.172,7.159-19.075,12.161l-0.045-0.063
			c6.906-5.004,12.97-8.87,19.084-12.166c47.459-25.627,101.608-47.025,165.541-65.417c7.518-2.162,16.435-4.699,25.57-7.118
			c18.915-5.008,34.451-8.355,48.894-10.533c25.917-3.936,52.146-4.597,74.386-4.723c1.185-0.009,2.366-0.014,3.53-0.014
			c41.041,0,69.266,5.641,91.2,18.173c6.519,3.725,9.9,5.801,15.481,12.26c3.514,4.067,11.174,18.54,11.251,18.686l0.052,0.098
			l-0.101-0.045l-10.048-4.409l-4.002-1.536c-8.262-4.072-17.306-6.666-28.467-8.166c-9.819-1.319-20.446-1.678-33.38-1.812
			c-2.505-0.024-5.009-0.035-7.5-0.035c-43.158,0-84.207,3.553-122.136,10.578c-30.625,5.677-70.824,13.529-110.174,23.948
			c-7.628,2.02-15.161,4.117-22.39,6.234c-4.547,1.337-9.545,2.725-15.28,4.243c-5.07,1.343-10.245,2.664-15.25,3.941l-0.088,0.023
			c-5.033,1.285-10.238,2.613-15.373,3.972c-7.828,2.073-14.24,3.888-20.179,5.713c-11.948,3.663-23.813,8.194-35.287,12.577
			l-0.099,0.038c-2.887,1.103-5.871,2.243-8.812,3.351L37.972,261.701z M39.946,255.307l-0.102-0.108l0.037-0.026
			c5.568-3.912,10.524-7.008,15.598-9.743c47.019-25.389,100.717-46.604,164.164-64.856c7.481-2.152,16.352-4.675,25.427-7.078
			c18.656-4.941,33.957-8.239,48.15-10.379c26.938-4.091,62.122-4.742,73.401-4.645c17.034,0.143,34.007,1.454,49.086,3.789
			c25.581,3.962,37.589,10.78,42.716,13.692c10.295,5.846,19.654,14.565,21.613,18.734l0.057,0.122l-0.113-0.073
			c-7.519-4.86-23.623-10.203-32.458-11.557c-11.487-1.76-23.35-2.02-34.516-2.135c-2.526-0.024-5.052-0.036-7.564-0.036
			c-43.579,0-85.051,3.592-123.395,10.694c-58.533,10.85-89.902,18.56-110.691,24.064c-7.695,2.038-15.288,4.152-22.569,6.283
			c-4.489,1.32-9.428,2.692-15.102,4.194c-5.071,1.343-10.26,2.667-15.277,3.947c-5.037,1.285-10.245,2.614-15.433,3.988
			c-7.92,2.097-14.415,3.936-20.442,5.788c-12.176,3.733-24.156,8.308-35.742,12.734c-2.224,0.849-4.524,1.728-6.82,2.598
			L39.946,255.307z M39.961,255.21l0.006,0.006c2.288-0.867,4.579-1.743,6.795-2.589c11.587-4.426,23.568-9.002,35.747-12.735
			c6.027-1.852,12.524-3.692,20.444-5.789c5.189-1.374,10.397-2.703,15.434-3.988c5.018-1.281,10.206-2.605,15.277-3.947
			c5.672-1.502,10.612-2.873,15.1-4.193c7.281-2.132,14.875-4.246,22.571-6.284c20.791-5.505,52.161-13.215,110.697-24.065
			c40.559-7.512,84.625-11.096,130.974-10.66c11.169,0.115,23.035,0.375,34.527,2.136c8.798,1.348,24.798,6.65,32.373,11.495
			c-2.077-4.205-11.339-12.795-21.522-18.577c-5.124-2.909-17.123-9.723-42.69-13.682c-15.075-2.334-32.044-3.644-49.074-3.788
			c-11.278-0.094-46.456,0.554-73.389,4.645c-14.191,2.14-29.488,5.438-48.142,10.377c-9.074,2.403-17.945,4.926-25.426,7.078
			c-63.441,18.251-117.135,39.463-164.149,64.85C50.455,248.226,45.511,251.313,39.961,255.21z"/>
	</g>
</g>
</svg>
